<svg width="187" height="77" viewBox="0 0 187 77" fill="none" xmlns="http://www.w3.org/2000/svg">
<path d="M17 35.5C22.61 35.17 28.22 34.84 35.07 34.34C41.92 33.84 49.84 33.18 58 32.5M149.5 32C156.615 30.335 168.98 29.67 172.985 28.8375C173.99 28.505 174.98 28.01 176.067 27.755C177.155 27.5 178.31 27.5 179.5 27.5M32.6016 2.32773C33.1252 1.95771 33.7832 1.67665 34.5186 1.77011C39.3511 2.38461 42.3583 5.64417 44.1533 10.0084C45.9347 14.3397 46.5918 19.8941 46.7197 25.4742C46.848 31.0723 46.4448 36.7941 46.0498 41.5016C45.8514 43.8667 45.6564 45.9556 45.5283 47.6744C45.3988 49.4129 45.3465 50.672 45.4111 51.3961C45.8595 56.4202 48.7103 62.5051 51.0332 66.7613C51.124 66.9277 51.1986 67.0221 51.2471 67.0767C51.2952 67.0423 51.3665 66.9866 51.459 66.8902C52.0491 66.2751 52.7695 64.9296 53.5947 63.0387C54.4006 61.1918 55.2386 58.992 56.1074 56.7789C56.969 54.5844 57.8609 52.3797 58.7559 50.5885C61.6436 44.8089 63.8456 40.0682 65.6836 36.0797C66.776 33.7091 67.744 31.5948 68.6514 29.6851C68.7991 26.4377 68.9921 23.343 69.3457 20.4937C69.9761 15.4143 71.1249 10.9412 73.5283 7.66366L73.6133 7.5621C73.7292 7.43897 73.9406 7.2712 74.2627 7.23788C74.7351 7.18918 75.0383 7.46383 75.1494 7.5914C75.264 7.7231 75.3232 7.85656 75.3496 7.92148C75.3812 7.99923 75.4027 8.07346 75.418 8.13339C75.4751 8.35777 75.5064 8.64201 75.5215 8.91952C75.5529 9.49518 75.5293 10.2776 75.4004 11.023C74.938 13.6959 74.7768 16.3183 74.3994 19.1109C74.0331 21.8213 73.4741 24.5384 72.2139 26.9791C71.6984 27.9774 71.1751 29.0389 70.6299 30.1803C70.5505 31.98 70.4802 33.8359 70.4072 35.7389C71.3885 35.4765 72.41 35.5419 73.4209 35.7818C74.895 36.1317 77.5499 36.5532 79.8516 37.6471C82.215 38.7703 84.4061 40.6885 84.8369 44.1051C85.0006 45.4033 85.1485 46.7031 85.2773 47.9967C87.3263 48.3481 90.0884 48.4769 93.2012 48.36C93.0102 47.3362 92.8423 46.2816 92.71 45.2096C91.9225 38.829 92.2771 31.5555 95.793 26.8004C97.6558 24.281 99.5057 21.7858 101.469 19.9127C103.436 18.0353 105.642 16.6607 108.24 16.5826C108.901 16.5627 109.596 16.5022 110.369 16.4498C111.123 16.3987 111.927 16.3584 112.72 16.3922C114.294 16.4592 115.989 16.8262 117.249 18.1676C118.674 19.6847 120.599 22.542 121.571 25.9527C122.48 29.1402 122.572 32.8854 120.559 36.4469C120.738 36.5127 120.918 36.5945 121.095 36.6939C121.475 36.595 121.878 36.4886 122.299 36.3736C124.184 35.8585 126.537 35.1717 128.562 34.6236C130.623 34.0662 132.59 33.5824 133.952 33.4244C138.585 32.887 145.363 32.4892 151.561 31.5846C151.673 29.8515 151.748 27.8808 151.812 25.8092C151.919 22.3239 151.998 18.5692 152.189 15.3121C152.379 12.0989 152.684 9.203 153.304 7.50546C153.463 7.07029 153.663 6.65264 153.929 6.31503C154.197 5.97397 154.589 5.64668 155.126 5.55429C155.668 5.46109 156.16 5.64096 156.554 5.90292C156.94 6.15993 157.298 6.53701 157.637 6.983C158.129 7.63061 159.153 9.02132 159.696 12.2838C160.232 15.5015 160.299 20.5209 158.977 28.4469C158.711 30.0371 158.299 31.1399 157.621 31.8726C156.913 32.6385 156.05 32.8515 155.332 32.9879C154.712 33.1057 154.078 33.2129 153.435 33.318C153.379 33.944 153.318 34.5311 153.246 35.0699C152.221 42.723 152.768 49.9032 154.09 55.7535C155.418 61.6349 157.506 66.069 159.472 68.3072C160.334 69.2885 161.563 69.7426 163.183 69.8951C164.783 70.0457 166.588 69.8906 168.569 69.7652C173.054 67.9071 176.904 65.0327 180.369 62.3902L180.393 62.3717L180.418 62.3541C182.042 61.2658 183.131 60.9022 184.184 60.5514C184.708 60.3767 185.274 60.6602 185.448 61.1842C185.623 61.708 185.34 62.2742 184.816 62.4488C183.832 62.7769 182.943 63.072 181.545 64.0064C178.065 66.6596 173.99 69.7159 169.183 71.6783L169.031 71.7408L168.867 71.7506C166.922 71.8711 164.842 72.0602 162.995 71.8863C161.12 71.7098 159.304 71.1478 157.969 69.6275C155.69 67.0332 153.502 62.2304 152.139 56.1939C150.768 50.1264 150.205 42.7068 151.264 34.8043C151.313 34.4367 151.355 34.0436 151.396 33.6285C145.226 34.5001 138.521 34.9074 134.183 35.4107C132.991 35.549 131.161 35.9916 129.085 36.5533C126.974 37.1245 124.851 37.7502 122.826 38.3033C122.726 38.3307 122.626 38.3556 122.526 38.3824C122.659 38.7452 122.742 39.149 122.762 39.5953C123.123 47.7369 123.543 54.0767 123.071 58.6891C122.834 61.0102 122.364 62.9901 121.49 64.5904C120.601 66.2195 119.316 67.414 117.544 68.1783C116.082 68.8088 114.528 68.882 112.974 68.7252C111.433 68.5698 109.796 68.1759 108.175 67.8053C103.434 66.7214 99.8657 63.5679 97.0947 59.7418C96.2674 58.5994 95.3743 56.5366 94.5957 54.0377C94.2426 52.9044 93.9087 51.6616 93.6104 50.3453C90.4964 50.4782 87.6736 50.3766 85.4619 50.0514C86.0317 57.1284 85.8141 63.909 83.3994 69.1881C82.7088 70.6979 81.8117 72.2277 80.6738 73.441C79.533 74.6574 78.1013 75.6055 76.3574 75.8248C75.6232 75.9171 74.7912 75.8891 74.0088 75.5641C73.1996 75.2279 72.5162 74.6029 72.0762 73.6451C70.2499 69.6699 69.2134 63.45 68.6787 56.9049C68.4132 53.6552 68.2691 50.2933 68.2197 47.0357C67.729 46.7308 67.2585 46.3805 66.8154 45.9762C66.2819 45.4891 65.8757 44.8924 65.6758 44.15C65.479 43.419 65.5026 42.6202 65.7002 41.7525C65.8952 40.8964 66.2638 39.9374 66.7393 39.0592C67.1709 38.262 67.7223 37.4763 68.3623 36.8853C68.3891 36.2118 68.4143 35.5417 68.4395 34.8756C68.1369 35.5323 67.8246 36.2122 67.5 36.9166C65.6592 40.9112 63.4467 45.6742 60.5449 51.482C59.6949 53.1832 58.8322 55.311 57.9687 57.5103C57.1126 59.6911 56.2533 61.9467 55.4277 63.8385C54.6214 65.6862 53.7767 67.3635 52.9023 68.275C52.4756 68.7198 51.8249 69.2101 51.0029 69.1109C50.171 69.0105 49.6297 68.3649 49.2773 67.7193C46.9503 63.4556 43.9076 57.0496 43.4189 51.5738C43.3373 50.6591 43.4068 49.2356 43.5342 47.526C43.663 45.7967 43.8606 43.6711 44.0566 41.3346C44.4506 36.6385 44.8455 31.0049 44.7197 25.5191C44.5935 20.0154 43.9437 14.7567 42.3037 10.7691C40.6771 6.81443 38.1476 4.24808 34.2666 3.75448C34.2058 3.74676 34.0463 3.75535 33.7559 3.96054C33.4666 4.16499 33.1333 4.50678 32.7754 4.98495C32.0622 5.93795 31.3742 7.26576 30.8232 8.58945C29.7667 11.1276 26.9863 16.2469 23.3818 23.3531C19.754 30.5053 15.2353 39.7733 10.627 50.7398C8.1057 56.7397 6.46029 60.6317 5.3623 62.9801C4.81795 64.1443 4.38391 64.9837 4.02539 65.5191C3.85284 65.7768 3.6456 66.0438 3.39648 66.233C3.13392 66.4324 2.62057 66.6781 2.05273 66.3941C1.55887 66.1471 1.3585 65.5463 1.60547 65.0523C1.74432 64.7749 1.99495 64.5898 2.27539 64.525C2.29923 64.4929 2.33041 64.4549 2.36328 64.4059C2.6285 64.0098 3.00773 63.2948 3.55078 62.1334C4.62778 59.8299 6.25454 55.9829 8.7832 49.9654C13.4164 38.9397 17.9581 29.626 21.5986 22.4488C25.2622 15.2261 27.958 10.2678 28.9766 7.82089C29.5602 6.41876 30.3227 4.92408 31.1738 3.78671C31.5982 3.21969 32.0765 2.69884 32.6016 2.32773ZM70.2383 48.0123C70.2996 50.9114 70.4375 53.8736 70.6719 56.7428C71.2046 63.2641 72.2249 69.1779 73.8936 72.8101C74.1288 73.3221 74.4438 73.5782 74.7764 73.7164C75.1356 73.8656 75.5894 73.9055 76.1074 73.8404C77.249 73.6969 78.281 73.0685 79.2148 72.0728C80.1518 71.0737 80.9417 69.7537 81.5811 68.356C83.8482 63.3995 84.0385 56.8334 83.4248 49.6764C82.3544 49.4905 81.1976 49.3919 79.9746 49.3199C78.5194 49.2342 76.9311 49.183 75.4102 49.0484C73.6679 48.8943 71.8889 48.6227 70.2383 48.0123ZM120.569 38.8883C119.848 39.0623 119.195 39.2001 118.655 39.2818C117.184 41.2997 115.668 43.0724 114.127 44.5113C112.098 46.4056 109.972 47.7725 107.8 48.315C103.8 49.3142 99.5537 49.9458 95.6367 50.2291C95.9039 51.3721 96.1964 52.453 96.5049 53.443C97.2679 55.8917 98.0848 57.6978 98.7148 58.568C101.327 62.1751 104.526 64.9189 108.62 65.8551C110.295 66.2379 111.787 66.596 113.174 66.7359C114.547 66.8745 115.721 66.7859 116.752 66.3414C118.11 65.7554 119.059 64.8725 119.735 63.6324C120.428 62.3634 120.856 60.6819 121.081 58.4859C121.533 54.0635 121.13 47.9425 120.764 39.6842C120.748 39.3214 120.668 39.0692 120.569 38.8883ZM112.635 18.3902C111.957 18.3614 111.244 18.3958 110.505 18.4459C109.785 18.4947 109.011 18.5603 108.3 18.5816C106.414 18.6384 104.659 19.6336 102.85 21.36C101.036 23.0906 99.2909 25.4343 97.4014 27.9898C94.3684 32.092 93.9195 38.6859 94.6943 44.9644C94.8328 46.0863 95.0104 47.1887 95.2148 48.2535C99.0657 47.9907 103.302 47.377 107.315 46.3746C109.035 45.945 110.868 44.8174 112.762 43.0494C113.997 41.8963 115.233 40.4898 116.46 38.8775C116.366 38.7633 116.286 38.621 116.237 38.443C116.083 37.8749 116.397 37.4187 116.522 37.2506C116.695 37.0195 116.935 36.7896 117.204 36.5641C117.371 36.4237 117.557 36.363 117.597 36.3492C117.68 36.3206 117.767 36.2974 117.85 36.2789C117.997 36.2458 118.172 36.2189 118.364 36.1998C118.373 36.1861 118.383 36.1725 118.393 36.1588C120.505 32.9797 120.516 29.5459 119.647 26.5016C118.773 23.4355 117.026 20.852 115.791 19.5367C115.058 18.7564 114.001 18.4484 112.635 18.3902ZM72.959 37.7281C71.8999 37.4768 71.058 37.508 70.3242 37.9117C70.228 40.3599 70.1819 43.0489 70.2051 45.8346C71.7576 46.5524 73.5847 46.8791 75.5869 47.0562C77.0726 47.1877 78.5584 47.2335 80.0918 47.3238C81.145 47.3858 82.2041 47.4692 83.2295 47.6197C83.1173 46.5413 82.9908 45.4519 82.8525 44.3551C82.5357 41.8421 80.98 40.398 78.9932 39.4537C76.9443 38.48 74.6449 38.1283 72.959 37.7281ZM68.2432 40.5172C67.9711 41.099 67.7665 41.687 67.6504 42.1969C67.503 42.8441 67.518 43.2985 67.6074 43.6305C67.6937 43.9509 67.8679 44.2283 68.1641 44.4986C68.1758 44.5093 68.1884 44.5193 68.2002 44.5299C68.1992 43.1568 68.214 41.8135 68.2432 40.5172ZM155.474 7.58945C155.394 7.70224 155.291 7.8929 155.183 8.19101C154.68 9.56768 154.378 12.1669 154.186 15.4303C153.996 18.65 153.92 22.3543 153.812 25.8707C153.753 27.7598 153.684 29.5996 153.584 31.2682C154.048 31.1894 154.506 31.1089 154.958 31.023C155.602 30.9007 155.906 30.7802 156.152 30.5142C156.429 30.2148 156.759 29.585 157.004 28.1178C158.305 20.3204 158.211 15.5385 157.724 12.6129C157.244 9.73289 156.382 8.63709 156.044 8.19198C155.794 7.86252 155.601 7.68166 155.474 7.58945ZM73.1309 12.6812C72.2722 14.9747 71.7108 17.6803 71.3311 20.7398C71.1612 22.1081 71.0291 23.5342 70.9209 25.0113C71.6984 23.1401 72.117 21.0627 72.417 18.8434C72.6784 16.9089 72.8591 14.7663 73.1309 12.6812Z" stroke="white" stroke-width="2" stroke-linecap="round"/>
</svg>
