<svg width="47" height="47" viewBox="0 0 47 47" fill="none" xmlns="http://www.w3.org/2000/svg">
<path d="M34.8799 10.2171C34.0959 9.62247 33.2199 9.37315 32.3466 9.49704L32.335 9.49897C31.9396 9.55892 31.5589 9.69253 31.2127 9.89287L31.1746 9.91487C29.5666 10.8758 28.7065 13.2104 29.0351 15.7241C29.2737 17.5634 30.1235 19.199 31.3087 20.0994C32.0924 20.695 32.9696 20.9436 33.8459 20.818L33.8553 20.8165C34.2508 20.7566 34.6315 20.623 34.9777 20.4226C36.6152 19.4772 37.4926 17.1326 37.164 14.5831C36.9187 12.7501 36.066 11.1178 34.8799 10.2171ZM33.4477 22.7041C32.1877 22.6821 30.9964 22.6609 29.8673 22.0392C26.7474 20.3153 24.8637 19.275 22.3407 20.7317C19.8177 22.1884 19.7744 24.3412 19.7038 27.9072C19.6771 29.1977 19.0984 30.2416 18.4858 31.3479C17.7832 32.6159 17.0572 33.9258 17.3363 35.5178C17.4233 36.0995 17.6211 36.6591 17.9189 37.1663C19.1549 39.307 21.8278 40.0862 23.8762 38.9035C24.9332 38.2933 25.8466 37.2776 26.8132 36.2027C27.7425 35.1692 28.7032 34.1008 29.7263 33.5101C30.7493 32.9195 32.1519 32.6233 33.5075 32.3377C34.9179 32.0371 36.2488 31.757 37.3088 31.1451C39.3542 29.9641 40.013 27.2614 38.777 25.1207C38.4844 24.61 38.0966 24.1601 37.6347 23.7953C36.3949 22.7564 34.8965 22.7299 33.4477 22.7041ZM14.8202 22.2829C16.0421 22.7628 17.2239 22.7331 18.1481 22.1996C18.2742 22.1267 18.3948 22.0446 18.5088 21.9539C20.2727 20.5576 20.1158 17.5121 18.1491 15.0159C17.323 13.9661 16.2666 13.154 15.1788 12.7276C13.9592 12.2488 12.7765 12.2797 11.853 12.813C11.7268 12.8858 11.6062 12.9679 11.4922 13.0586C9.72829 14.4549 9.88521 17.5005 11.8519 19.9966C12.6764 21.045 13.7321 21.8559 14.8202 22.2829ZM25.3157 18.024C25.4512 17.9705 25.5826 17.9072 25.7088 17.8344C26.6336 17.3004 27.2495 16.2922 27.4449 14.994C27.6186 13.8385 27.4418 12.5202 26.9477 11.2794C25.7701 8.32933 23.211 6.67064 21.1191 7.49888C20.9836 7.55232 20.8522 7.6157 20.726 7.68851C19.8031 8.22293 19.185 9.23164 18.9899 10.5273C18.8152 11.6825 18.9903 13.0035 19.4878 14.2446C20.6654 17.1947 23.2245 18.8534 25.3157 18.024ZM16.6568 30.7461L16.6635 30.7383C17.2092 30.0429 17.4322 29.1599 17.308 28.1843C17.1194 26.7053 16.1295 25.153 14.6571 24.0261C12.6191 22.4667 10.1502 22.0533 8.5144 22.9977C8.16772 23.1972 7.86164 23.4601 7.61211 23.7728L7.60549 23.7805C7.06018 24.4725 6.83854 25.3579 6.96271 26.3335C7.1513 27.8125 8.14123 29.3648 9.6136 30.4918C11.6516 32.0511 14.1206 32.4645 15.7563 31.5201C16.1023 31.3207 16.4077 31.0582 16.6568 30.7461Z" fill="black" fill-opacity="0.08"/>
</svg>
