<svg width="47" height="47" viewBox="0 0 47 47" fill="none" xmlns="http://www.w3.org/2000/svg">
<path d="M35.8799 11.7171C35.0959 11.1225 34.2199 10.8732 33.3466 10.997L33.335 10.999C32.9396 11.0589 32.5589 11.1925 32.2127 11.3929L32.1746 11.4149C30.5666 12.3758 29.7065 14.7104 30.0351 17.2241C30.2737 19.0634 31.1235 20.699 32.3087 21.5994C33.0924 22.195 33.9696 22.4436 34.8459 22.318L34.8553 22.3165C35.2508 22.2566 35.6315 22.123 35.9777 21.9226C37.6152 20.9772 38.4926 18.6326 38.164 16.0831C37.9187 14.2501 37.066 12.6178 35.8799 11.7171ZM34.4477 24.2041C33.1877 24.1821 31.9964 24.1609 30.8673 23.5392C27.7474 21.8153 25.8637 20.775 23.3407 22.2317C20.8177 23.6884 20.7744 25.8412 20.7038 29.4072C20.6771 30.6977 20.0984 31.7416 19.4858 32.8479C18.7832 34.1159 18.0572 35.4258 18.3363 37.0178C18.4233 37.5995 18.6211 38.1591 18.9189 38.6663C20.1549 40.807 22.8278 41.5862 24.8762 40.4035C25.9332 39.7933 26.8466 38.7776 27.8132 37.7027C28.7425 36.6692 29.7032 35.6008 30.7263 35.0101C31.7493 34.4195 33.1519 34.1233 34.5075 33.8377C35.9179 33.5371 37.2488 33.257 38.3088 32.6451C40.3542 31.4641 41.013 28.7614 39.777 26.6207C39.4844 26.11 39.0966 25.6601 38.6347 25.2953C37.3949 24.2564 35.8965 24.2299 34.4477 24.2041ZM15.8202 23.7829C17.0421 24.2628 18.2239 24.2331 19.1481 23.6996C19.2742 23.6267 19.3948 23.5446 19.5088 23.4539C21.2727 22.0576 21.1158 19.0121 19.1491 16.5159C18.323 15.4661 17.2666 14.654 16.1788 14.2276C14.9592 13.7488 13.7765 13.7797 12.853 14.313C12.7268 14.3858 12.6062 14.4679 12.4922 14.5586C10.7283 15.9549 10.8852 19.0005 12.8519 21.4966C13.6764 22.545 14.7321 23.3559 15.8202 23.7829ZM26.3157 19.524C26.4512 19.4705 26.5826 19.4072 26.7088 19.3344C27.6336 18.8004 28.2495 17.7922 28.4449 16.494C28.6186 15.3385 28.4418 14.0202 27.9477 12.7794C26.7701 9.82933 24.211 8.17064 22.1191 8.99888C21.9836 9.05232 21.8522 9.1157 21.726 9.18851C20.8031 9.72293 20.185 10.7316 19.9899 12.0273C19.8152 13.1825 19.9903 14.5035 20.4878 15.7446C21.6654 18.6947 24.2245 20.3534 26.3157 19.524ZM17.6568 32.2461L17.6635 32.2383C18.2092 31.5429 18.4322 30.6599 18.308 29.6843C18.1194 28.2053 17.1295 26.653 15.6571 25.5261C13.6191 23.9667 11.1502 23.5533 9.5144 24.4977C9.16772 24.6972 8.86164 24.9601 8.61211 25.2728L8.60549 25.2805C8.06018 25.9725 7.83854 26.8579 7.96271 27.8335C8.1513 29.3125 9.14123 30.8648 10.6136 31.9918C12.6516 33.5511 15.1206 33.9645 16.7563 33.0201C17.1023 32.8207 17.4077 32.5582 17.6568 32.2461Z" fill="black" fill-opacity="0.26"/>
</svg>
