<svg width="100" height="80" viewBox="0 0 100 80" fill="none" xmlns="http://www.w3.org/2000/svg">
<g clip-path="url(#clip0_48_74)">
<path d="M20.7703 0C15.0645 0 10.8422 5.01373 11.0312 10.451C11.2129 15.6745 10.977 22.4404 9.28047 27.9576C7.57891 33.491 4.70078 36.9961 0 37.4463V42.5271C4.70078 42.9773 7.57891 46.4824 9.28047 52.0161C10.977 57.5333 11.2129 64.2984 11.0312 69.5224C10.8422 74.9588 15.0645 79.9733 20.7711 79.9733H79.2371C84.9434 79.9733 89.1645 74.9596 88.9754 69.5224C88.7941 64.2988 89.0297 57.5333 90.7262 52.0161C92.4289 46.4827 95.2992 42.9769 100 42.5271V37.4463C95.2992 36.9961 92.4289 33.491 90.7266 27.9576C89.0297 22.4412 88.7941 15.6749 88.9754 10.451C89.1645 5.01451 84.9434 0 79.2371 0H20.7695H20.7703ZM67.7969 49.2286C67.7969 56.7157 62.2344 61.2561 53.0031 61.2561H37.2883C36.8389 61.2559 36.4079 61.0765 36.0902 60.7574C35.7724 60.4384 35.5939 60.0057 35.5938 59.5545V20.4188C35.5938 19.9675 35.7723 19.5347 36.0902 19.2155C36.408 18.8963 36.8391 18.717 37.2887 18.7169H52.9133C60.6105 18.7169 65.6621 22.9031 65.6621 29.3298C65.6621 33.8408 62.2637 37.8792 57.9344 38.5863V38.822C63.8285 39.471 67.7969 43.5686 67.7969 49.2286ZM51.2891 24.111H42.3293V36.8169H49.8762C55.7098 36.8169 58.927 34.4584 58.927 30.2427C58.927 26.2926 56.1602 24.111 51.2891 24.111ZM42.3297 41.8584V55.8604H51.6195C57.693 55.8604 60.9109 53.4137 60.9109 48.8153C60.9109 44.2161 57.6035 41.8576 51.2289 41.8576H42.3297V41.8584Z" fill="#7E13F8"/>
</g>
<defs>
<clipPath id="clip0_48_74">
<rect width="100" height="80" fill="white"/>
</clipPath>
</defs>
</svg>
