<svg width="91" height="91" viewBox="0 0 91 91" fill="none" xmlns="http://www.w3.org/2000/svg">
<path d="M63.4398 4.1633H58.1902L63.6495 10.0875V12.9078H52.4053V9.60553H57.8639L52.4053 3.68129V0.858154H63.4398V4.1633ZM50.1758 4.1633H44.9263L50.3856 10.0875V12.9078H39.1407V9.60553H44.5999L39.1407 3.68129V0.858154H50.1758V4.1633ZM37.042 4.29838H31.3772V9.46761H37.042V12.9078H27.3505V0.858154H37.042V4.29838Z" fill="#131313"/>
<path d="M19.6311 82.9707L13.8746 18.4083H77.1246L71.3632 82.96L45.4609 90.1419L19.6311 82.9707Z" fill="#1572B6"/>
<path d="M45.5007 84.6528L66.43 78.8501L71.354 23.6877H45.5007V84.6528Z" fill="#33A9DC"/>
<path d="M45.5 47.0783H55.9778L56.7022 38.9701H45.5V31.0516H65.3558L65.166 33.1759L63.2201 54.996H45.5V47.0783Z" fill="white"/>
<path d="M45.5476 67.6429L45.5128 67.6528L36.6943 65.2712L36.1298 58.9559H28.1823L29.292 71.3888L45.5114 75.8912L45.5483 75.8805L45.5476 67.6429Z" fill="#EBEBEB"/>
<path d="M55.3052 54.6611L54.3512 65.2655L45.5199 67.6492V75.8876L61.7527 71.3888L61.8722 70.0508L63.25 54.6611H55.3052Z" fill="white"/>
<path d="M45.5277 31.0516V38.9693H26.4013L26.2421 37.1899L25.8817 33.1759L25.6918 31.0516H45.5277ZM45.5 47.079V54.9974H36.7931L36.6346 53.218L36.2734 49.2033L36.0836 47.079H45.5Z" fill="#EBEBEB"/>
</svg>
