<svg width="100" height="100" viewBox="0 0 100 100" fill="none" xmlns="http://www.w3.org/2000/svg">
<g clip-path="url(#clip0_48_32)">
<path d="M20.3941 79.6058L3.28633 62.498C1.25703 60.4179 0 57.4769 0 54.6023C0 53.2715 0.75 51.191 1.31602 50L17.1078 17.1078L20.3941 79.6058Z" fill="#01579B"/>
<path d="M78.9516 20.3941L61.8438 3.28633C60.3516 1.78633 57.2414 0 54.6094 0C52.3453 0 50.125 0.455859 48.6914 1.31602L17.1152 17.1078L78.9516 20.3941ZM40.7883 100H82.2379V82.2379L51.316 72.3645L23.0262 82.2379L40.7883 100Z" fill="#40C4FF"/>
<path d="M17.1079 70.3941C17.1079 75.6727 17.7696 76.9668 20.3942 79.6059L23.0263 82.2379H82.238L53.2938 49.3457L17.1079 17.1074V70.3941Z" fill="#29B6F6"/>
<path d="M69.7399 17.1004H17.1079L82.238 82.2305H100V41.4426L78.9442 20.3867C75.9888 17.4238 73.3642 17.1004 69.7399 17.1004Z" fill="#01579B"/>
<path opacity="0.2" d="M21.0558 80.2602C18.4237 77.6211 17.7695 75.0184 17.7695 70.3941V17.7617L17.1152 17.1074V70.3937C17.1073 75.018 17.1073 76.2973 21.0558 80.2598L23.0261 82.2301L21.0558 80.2602Z" fill="white"/>
<path opacity="0.2" d="M99.3456 40.7883V81.5762H81.5835L82.2378 82.2379H99.9999V41.4426L99.3456 40.7883Z" fill="#263238"/>
<path opacity="0.2" d="M78.9516 20.3941C75.6875 17.1297 73.0187 17.1078 69.0855 17.1078H17.1152L17.7695 17.7621H69.0855C71.0484 17.7621 76.0035 17.4312 78.9516 20.3941Z" fill="white"/>
<path opacity="0.2" d="M99.3457 40.7883L78.9516 20.3938L61.8438 3.28672C60.3516 1.78633 57.2415 0 54.6094 0C52.3454 0 50.1251 0.455859 48.6915 1.31602L17.1153 17.1078L1.32349 50C0.75708 51.1984 0.00708008 53.2789 0.00708008 54.6023C0.00708008 57.477 1.27192 60.4102 3.2938 62.498L19.0559 78.1504C19.4309 78.6133 19.8723 79.084 20.3942 79.6059L21.0485 80.2602L23.0188 82.2305L40.1266 99.3383L40.7809 99.9926H82.2227V82.2309H99.9848V41.4422L99.3457 40.7883Z" fill="url(#paint0_radial_48_32)"/>
</g>
<defs>
<radialGradient id="paint0_radial_48_32" cx="0" cy="0" r="1" gradientUnits="userSpaceOnUse" gradientTransform="translate(4998.89 4999.08) scale(4999.29 4999.28)">
<stop stop-color="white" stop-opacity="0.1"/>
<stop offset="1" stop-color="white" stop-opacity="0"/>
</radialGradient>
<clipPath id="clip0_48_32">
<rect width="100" height="100" fill="white"/>
</clipPath>
</defs>
</svg>
