<svg width="100" height="100" viewBox="0 0 100 100" fill="none" xmlns="http://www.w3.org/2000/svg">
<g clip-path="url(#clip0_48_8)">
<path d="M76.5625 0H23.4375C10.4933 0 0 10.4933 0 23.4375V76.5625C0 89.5067 10.4933 100 23.4375 100H76.5625C89.5067 100 100 89.5067 100 76.5625V23.4375C100 10.4933 89.5067 0 76.5625 0Z" fill="#F4F2ED"/>
<path d="M89.0625 71.4597C87.9254 71.8906 86.6697 71.8898 85.5331 71.4576C84.3965 71.0254 83.4577 70.1916 82.8941 69.114C79.3539 63.8144 75.4445 58.7539 71.6871 53.5847L70.0578 51.4129C65.5836 57.4074 61.1094 63.1629 57.0262 69.1359C56.4943 70.1657 55.6063 70.967 54.5274 71.3906C53.4486 71.8142 52.2525 71.8311 51.1621 71.4383L67.9512 48.9152L52.3348 28.5637C53.4589 28.1578 54.6887 28.1522 55.8164 28.5479C56.9442 28.9436 57.9009 29.7163 58.525 30.7355C62.152 36.0355 66.1703 41.0961 70.1664 46.4609C74.1848 41.1394 78.1594 36.057 81.8734 30.8008C82.4081 29.7876 83.2967 29.0064 84.37 28.6059C85.4433 28.2054 86.6265 28.2136 87.6941 28.6289L81.6344 36.6652C78.9195 40.2488 76.248 43.8543 73.4246 47.3512C73.1971 47.5549 73.015 47.8043 72.8904 48.0831C72.7658 48.3619 72.7014 48.6639 72.7014 48.9693C72.7014 49.2747 72.7658 49.5767 72.8904 49.8555C73.015 50.1344 73.1971 50.3838 73.4246 50.5875C78.6156 57.4726 83.7629 64.3793 89.0625 71.4597ZM10.9375 48.6328C11.3937 46.4609 11.6758 44.0933 12.3059 41.8781C16.0633 28.5207 31.3754 22.9601 41.9094 31.2355C48.0777 36.0793 49.6199 42.9426 49.316 50.6746H14.5648C14 64.4883 23.9691 72.8285 36.7184 68.5715C38.7865 67.8317 40.6379 66.5886 42.1054 64.9542C43.5729 63.3198 44.6103 61.3458 45.1238 59.2101C45.7973 57.0383 46.8832 56.6691 48.9465 57.2988C48.6066 59.9429 47.6717 62.4756 46.2121 64.7064C44.7526 66.9372 42.8062 68.8081 40.5195 70.1785C36.7413 72.245 32.4064 73.0637 28.1347 72.5176C23.863 71.9715 19.8735 70.0884 16.7367 67.1379C13.6334 63.6485 11.757 59.2396 11.3937 54.584C11.3937 53.8457 11.1113 53.107 10.9594 52.4121C10.945 51.1524 10.9377 49.8926 10.9375 48.6328ZM14.6082 47.6988H46.0363C45.8406 37.6863 39.5203 30.584 31.0934 30.5191C21.7105 30.3886 14.9992 37.3387 14.5863 47.6554L14.6082 47.6988Z" fill="#0F0F0F"/>
</g>
<defs>
<clipPath id="clip0_48_8">
<rect width="100" height="100" fill="white"/>
</clipPath>
</defs>
</svg>
