<svg width="100" height="100" viewBox="0 0 100 100" fill="none" xmlns="http://www.w3.org/2000/svg">
<path d="M41.1625 8.8375L36.8125 13.1875L42.7813 19.1563L49.0313 25.4063C50.4548 24.7021 52.0344 24.3728 53.6207 24.4498C55.207 24.5267 56.7474 25.0072 58.0961 25.8458C59.4448 26.6845 60.5571 27.8534 61.3278 29.2421C62.0984 30.6307 62.5019 32.1931 62.5 33.7813C62.4663 35.1985 62.1364 36.593 61.5313 37.875L67.9688 44.125C69.657 43.1496 71.6327 42.7938 73.5552 43.119C75.4777 43.4441 77.2265 44.4299 78.5 45.9063C79.3899 46.7596 80.0937 47.7879 80.5669 48.9265C81.0402 50.065 81.2728 51.2891 81.25 52.5219C81.252 54.9835 80.2921 57.3486 78.575 59.1125C77.7111 60.0148 76.6699 60.7288 75.517 61.2095C74.364 61.6903 73.124 61.9275 71.875 61.9063C70.6395 61.9257 69.4128 61.6948 68.2689 61.2276C67.1249 60.7603 66.0874 60.0664 65.2188 59.1875C63.747 57.9033 62.7677 56.1473 62.4484 54.2203C62.1291 52.2933 62.4899 50.3153 63.4688 48.625L57.2188 42.1875C56.903 42.3303 56.5796 42.4555 56.25 42.5625V62.5C58.0643 63.1462 59.6355 64.3356 60.75 65.9063C61.8876 67.4675 62.5003 69.3495 62.5 71.2813C62.5246 72.5188 62.2936 73.7481 61.8215 74.8923C61.3494 76.0365 60.6463 77.0711 59.7563 77.9313C58.0545 79.631 55.7611 80.6064 53.3563 80.6531C51.6186 80.7074 49.9003 80.2744 48.3959 79.4029C46.8915 78.5315 45.661 77.2565 44.8436 75.7221C44.0261 74.1877 43.6544 72.4551 43.7704 70.7204C43.8864 68.9858 44.4855 67.3181 45.5 65.9063C46.6145 64.3356 48.1857 63.1462 50 62.5V42.5625C48.1818 41.9236 46.6086 40.7327 45.5 39.1563C44.3585 37.597 43.7454 35.7137 43.75 33.7813C43.7474 32.3596 44.0792 30.9572 44.7188 29.6875L32.5313 17.5L8.84689 41.1625C7.68542 42.3231 6.76398 43.7012 6.13521 45.2179C5.50644 46.7347 5.18266 48.3605 5.18237 50.0025C5.18208 51.6444 5.50529 53.2703 6.13352 54.7874C6.76175 56.3044 7.6827 57.6827 8.84377 58.8438L41.1625 91.1625C43.5066 93.5059 46.6855 94.8223 50 94.8223C53.3146 94.8223 56.4934 93.5059 58.8375 91.1625L91.1625 58.8375C93.5059 56.4934 94.8223 53.3146 94.8223 50C94.8223 46.6855 93.5059 43.5066 91.1625 41.1625L58.8375 8.8375C56.4934 6.49412 53.3146 5.17767 50 5.17767C46.6855 5.17767 43.5066 6.49412 41.1625 8.8375Z" fill="#E64A19"/>
</svg>
