<svg width="500" height="120" viewBox="0 0 188 44" fill="none" xmlns="http://www.w3.org/2000/svg">
<mask id="path-1-outside-1_2_27" maskUnits="userSpaceOnUse" x="0.360001" y="0.479998" width="188" height="44" fill="black">
<rect fill="white" x="0.360001" y="0.479998" width="188" height="44"/>
<path d="M152.385 41.6C151.825 41.6 151.399 41.5067 151.105 41.32C150.839 41.16 150.705 40.9067 150.705 40.56V26.24C150.705 25.12 150.532 24.3733 150.185 24C149.839 23.6 149.359 23.4 148.745 23.4C148.292 23.4 147.905 23.52 147.585 23.76C147.292 24 147.052 24.3467 146.865 24.8C146.705 25.2533 146.599 25.7867 146.545 26.4C146.519 26.8267 146.399 27.1467 146.185 27.36C145.972 27.5467 145.625 27.64 145.145 27.64C144.719 27.64 144.372 27.5467 144.105 27.36C143.839 27.1733 143.719 26.7333 143.745 26.04C143.799 24.8933 144.039 23.9067 144.465 23.08C144.865 22.2267 145.425 21.5733 146.145 21.12C146.892 20.64 147.759 20.4 148.745 20.4C149.492 20.4 150.145 20.4933 150.705 20.68C151.265 20.84 151.759 21.08 152.185 21.4C152.612 21.72 152.959 22.12 153.225 22.6C153.492 23.0533 153.692 23.56 153.825 24.12L153.865 24.28C154.292 23.5067 154.772 22.8667 155.305 22.36C155.839 21.8533 156.385 21.44 156.945 21.12C157.532 20.8 158.119 20.5733 158.705 20.44C159.292 20.3067 159.839 20.24 160.345 20.24C161.705 20.24 162.919 20.4933 163.985 21C165.052 21.5067 165.892 22.3067 166.505 23.4C167.145 24.4667 167.465 25.88 167.465 27.64V40.56C167.465 40.9067 167.319 41.16 167.025 41.32C166.732 41.5067 166.292 41.6 165.705 41.6C165.119 41.6 164.679 41.5067 164.385 41.32C164.119 41.16 163.985 40.9067 163.985 40.56V27.96C163.985 27 163.852 26.1867 163.585 25.52C163.319 24.8267 162.879 24.3067 162.265 23.96C161.679 23.6133 160.879 23.44 159.865 23.44C159.385 23.44 158.892 23.52 158.385 23.68C157.879 23.8133 157.359 24.0533 156.825 24.4C156.319 24.7467 155.839 25.2 155.385 25.76C154.932 26.32 154.519 27.0133 154.145 27.84V40.56C154.145 40.9067 153.999 41.16 153.705 41.32C153.412 41.5067 152.972 41.6 152.385 41.6ZM181.185 41.68C180.492 41.68 179.892 41.5867 179.385 41.4C178.879 41.2133 178.465 40.9467 178.145 40.6C177.852 40.2533 177.625 39.8267 177.465 39.32C177.332 38.7867 177.265 38.2 177.265 37.56V27.96C177.265 27.0267 177.132 26.2267 176.865 25.56C176.599 24.8667 176.159 24.3467 175.545 24C174.959 23.6267 174.172 23.44 173.185 23.44C172.492 23.44 171.785 23.56 171.065 23.8C170.372 24.04 169.705 24.44 169.065 25C168.425 25.5333 167.852 26.2667 167.345 27.2C166.865 28.1333 166.479 29.28 166.185 30.64H165.145C165.145 29.12 165.345 27.7333 165.745 26.48C166.172 25.2 166.759 24.0933 167.505 23.16C168.279 22.2267 169.185 21.5067 170.225 21C171.265 20.4933 172.412 20.24 173.665 20.24C175.025 20.24 176.225 20.4933 177.265 21C178.332 21.5067 179.172 22.3067 179.785 23.4C180.399 24.4667 180.705 25.88 180.705 27.64V37.16C180.705 37.5067 180.759 37.8 180.865 38.04C180.972 38.2533 181.119 38.4133 181.305 38.52C181.492 38.6267 181.705 38.68 181.945 38.68C182.265 38.68 182.519 38.64 182.705 38.56C182.892 38.48 183.065 38.3733 183.225 38.24C183.385 38.1067 183.572 37.96 183.785 37.8C183.972 37.6667 184.199 37.64 184.465 37.72C184.732 37.7733 184.972 37.9467 185.185 38.24C185.345 38.4267 185.452 38.6667 185.505 38.96C185.559 39.2267 185.505 39.4667 185.345 39.68C185.052 40.1067 184.679 40.4667 184.225 40.76C183.772 41.0533 183.279 41.28 182.745 41.44C182.239 41.6 181.719 41.68 181.185 41.68Z"/>
<path d="M142.195 2.48C142.809 2.48 143.289 2.62666 143.635 2.92C143.982 3.18667 144.155 3.57333 144.155 4.08C144.155 4.82666 144.102 5.6 143.995 6.4C143.915 7.17333 143.755 7.96 143.515 8.76C143.302 9.56 143.009 10.3333 142.635 11.08C142.289 11.8267 141.835 12.52 141.275 13.16C141.142 13.2933 140.982 13.44 140.795 13.6C140.635 13.7333 140.409 13.8 140.115 13.8C139.742 13.8 139.382 13.68 139.035 13.44C138.715 13.2 138.555 12.9067 138.555 12.56C138.555 12.4533 138.595 12.32 138.675 12.16C138.755 11.9733 138.849 11.7733 138.955 11.56C139.382 10.76 139.689 10.04 139.875 9.4C140.062 8.76 140.182 8.02667 140.235 7.2C140.289 6.34667 140.315 5.26666 140.315 3.96C140.315 3.45333 140.489 3.08 140.835 2.84C141.182 2.6 141.635 2.48 142.195 2.48Z"/>
<path d="M123.296 41C122.896 41 122.603 40.88 122.416 40.64C122.256 40.4 122.176 39.9867 122.176 39.4C122.176 38.7867 122.256 38.3733 122.416 38.16C122.603 37.92 122.896 37.8 123.296 37.8H127.496V6.72H123.296C122.896 6.72 122.603 6.6 122.416 6.36C122.256 6.12 122.176 5.70666 122.176 5.12C122.176 4.50667 122.256 4.09333 122.416 3.88C122.603 3.64 122.896 3.52 123.296 3.52H135.256C135.656 3.52 135.936 3.64 136.096 3.88C136.256 4.09333 136.336 4.50667 136.336 5.12C136.336 5.70666 136.256 6.12 136.096 6.36C135.936 6.6 135.656 6.72 135.256 6.72H130.976V37.8H135.256C135.656 37.8 135.936 37.92 136.096 38.16C136.256 38.3733 136.336 38.7867 136.336 39.4C136.336 39.9867 136.256 40.4 136.096 40.64C135.936 40.88 135.656 41 135.256 41H123.296Z"/>
<path d="M97.6403 41.76C95.8536 41.76 94.2536 41.2933 92.8403 40.36C91.4536 39.4267 90.3603 38.16 89.5603 36.56C88.7603 34.9333 88.3603 33.08 88.3603 31C88.3603 29.4267 88.587 27.9867 89.0403 26.68C89.4936 25.3733 90.1336 24.24 90.9603 23.28C91.8136 22.32 92.8003 21.5733 93.9203 21.04C95.0403 20.5067 96.2803 20.24 97.6403 20.24C99.427 20.24 101.014 20.7067 102.4 21.64C103.787 22.5467 104.88 23.8133 105.68 25.44C106.48 27.0667 106.88 28.92 106.88 31C106.88 32.2533 106.734 33.4267 106.44 34.52C106.147 35.6133 105.72 36.6 105.16 37.48C104.627 38.36 103.974 39.12 103.2 39.76C102.454 40.4 101.6 40.8933 100.64 41.24C99.707 41.5867 98.707 41.76 97.6403 41.76ZM97.6403 38.56C98.5203 38.56 99.307 38.3867 100 38.04C100.72 37.6933 101.32 37.1867 101.8 36.52C102.307 35.8533 102.694 35.0533 102.96 34.12C103.227 33.1867 103.36 32.1467 103.36 31C103.36 29.4533 103.134 28.12 102.68 27C102.227 25.8533 101.574 24.9733 100.72 24.36C99.867 23.7467 98.8403 23.44 97.6403 23.44C96.7603 23.44 95.9603 23.6133 95.2403 23.96C94.5203 24.3067 93.907 24.8133 93.4003 25.48C92.9203 26.1467 92.547 26.9467 92.2803 27.88C92.0136 28.7867 91.8803 29.8267 91.8803 31C91.8803 32.5467 92.107 33.8933 92.5603 35.04C93.0403 36.16 93.707 37.0267 94.5603 37.64C95.4136 38.2533 96.4403 38.56 97.6403 38.56Z"/>
<path d="M82.3203 41.68C81.947 41.68 81.6803 41.52 81.5203 41.2C81.3336 40.9067 81.267 40.5733 81.3203 40.2C81.347 39.8 81.507 39.4533 81.8003 39.16C82.0936 38.84 82.5203 38.68 83.0803 38.68C83.8803 38.68 84.6003 38.5733 85.2403 38.36C85.8536 38.1467 86.387 37.8267 86.8403 37.4C87.2936 36.9733 87.6536 36.44 87.9203 35.8C88.2136 35.16 88.4136 34.4133 88.5203 33.56C88.5736 33.16 88.7736 32.9067 89.1203 32.8C89.467 32.6667 89.8003 32.6667 90.1203 32.8C90.467 32.9067 90.6136 33.16 90.5603 33.56C90.4536 34.9733 90.1736 36.2 89.7203 37.24C89.267 38.2533 88.6803 39.0933 87.9603 39.76C87.2403 40.4 86.4003 40.88 85.4403 41.2C84.507 41.52 83.467 41.68 82.3203 41.68Z"/>
<path d="M82.3516 41.68C81.4449 41.68 80.6582 41.5467 79.9916 41.28C79.3249 41.04 78.7782 40.6667 78.3516 40.16C77.9249 39.6267 77.6049 38.9733 77.3916 38.2C77.2049 37.4 77.1116 36.4667 77.1116 35.4V3.92C77.1116 3.57333 77.2449 3.32 77.5116 3.16C77.8049 2.97333 78.2316 2.88 78.7916 2.88C79.3782 2.88 79.8182 2.97333 80.1116 3.16C80.4049 3.32 80.5516 3.57333 80.5516 3.92V35.4C80.5516 36.6 80.7249 37.4533 81.0716 37.96C81.4449 38.44 82.1249 38.68 83.1116 38.68C83.4849 38.68 83.7649 38.84 83.9516 39.16C84.1382 39.4533 84.2049 39.8 84.1516 40.2C84.1249 40.5733 83.9649 40.9067 83.6716 41.2C83.3782 41.52 82.9382 41.68 82.3516 41.68Z"/>
<path d="M69.3516 41.68C68.9782 41.68 68.7116 41.52 68.5516 41.2C68.3649 40.9067 68.2982 40.5733 68.3516 40.2C68.3782 39.8 68.5382 39.4533 68.8316 39.16C69.1249 38.84 69.5516 38.68 70.1116 38.68C70.9916 38.68 71.8049 38.5333 72.5516 38.24C73.3249 37.9467 74.0182 37.5467 74.6316 37.04C75.2449 36.5067 75.7916 35.88 76.2716 35.16C76.7516 34.44 77.1516 33.6667 77.4716 32.84C77.6316 32.44 77.8582 32.2667 78.1516 32.32C78.4449 32.3467 78.6982 32.4933 78.9116 32.76C79.1516 33 79.2316 33.2667 79.1516 33.56C78.7516 34.84 78.2316 35.9867 77.5916 37C76.9782 37.9867 76.2582 38.84 75.4316 39.56C74.6316 40.2533 73.7116 40.7733 72.6716 41.12C71.6582 41.4933 70.5516 41.68 69.3516 41.68Z"/>
<path d="M69.3828 41.68C68.4761 41.68 67.6895 41.5467 67.0228 41.28C66.3561 41.04 65.8095 40.6667 65.3828 40.16C64.9561 39.6267 64.6361 38.9733 64.4228 38.2C64.2361 37.4 64.1428 36.4667 64.1428 35.4V3.92C64.1428 3.57333 64.2761 3.32 64.5428 3.16C64.8361 2.97333 65.2628 2.88 65.8228 2.88C66.4095 2.88 66.8495 2.97333 67.1428 3.16C67.4361 3.32 67.5828 3.57333 67.5828 3.92V35.4C67.5828 36.6 67.7561 37.4533 68.1028 37.96C68.4761 38.44 69.1561 38.68 70.1428 38.68C70.5161 38.68 70.7961 38.84 70.9828 39.16C71.1695 39.4533 71.2361 39.8 71.1828 40.2C71.1561 40.5733 70.9961 40.9067 70.7028 41.2C70.4095 41.52 69.9695 41.68 69.3828 41.68Z"/>
<path d="M56.3828 41.68C56.0095 41.68 55.7428 41.52 55.5828 41.2C55.3961 40.9067 55.3295 40.5733 55.3828 40.2C55.4095 39.8 55.5695 39.4533 55.8628 39.16C56.1561 38.84 56.5828 38.68 57.1428 38.68C58.0228 38.68 58.8361 38.5333 59.5828 38.24C60.3561 37.9467 61.0495 37.5467 61.6628 37.04C62.2761 36.5067 62.8228 35.88 63.3028 35.16C63.7828 34.44 64.1828 33.6667 64.5028 32.84C64.6628 32.44 64.8895 32.2667 65.1828 32.32C65.4761 32.3467 65.7295 32.4933 65.9428 32.76C66.1828 33 66.2628 33.2667 66.1828 33.56C65.7828 34.84 65.2628 35.9867 64.6228 37C64.0095 37.9867 63.2895 38.84 62.4628 39.56C61.6628 40.2533 60.7428 40.7733 59.7028 41.12C58.6895 41.4933 57.5828 41.68 56.3828 41.68Z"/>
<path d="M44.7809 41.68C43.2609 41.68 41.9143 41.32 40.7409 40.6C39.5676 39.8533 38.6476 38.7333 37.9809 37.24C37.3143 35.7467 36.9809 33.8667 36.9809 31.6C36.9809 30.2133 37.1143 28.9333 37.3809 27.76C37.6476 26.5867 38.0209 25.5333 38.5009 24.6C39.0076 23.6667 39.6209 22.88 40.3409 22.24C41.0876 21.6 41.9276 21.1067 42.8609 20.76C43.7943 20.4133 44.8209 20.24 45.9409 20.24C47.0343 20.24 48.1543 20.4533 49.3009 20.88C50.4476 21.3067 51.4743 21.8667 52.3809 22.56V25.56C51.3143 24.7067 50.2876 24.1333 49.3009 23.84C48.3409 23.5467 47.3409 23.4 46.3009 23.4C45.6076 23.4 44.9543 23.5067 44.3409 23.72C43.7543 23.9333 43.2209 24.2533 42.7409 24.68C42.2876 25.1067 41.8876 25.64 41.5409 26.28C41.2209 26.92 40.9676 27.6667 40.7809 28.52C40.6209 29.3733 40.5409 30.3467 40.5409 31.44C40.5409 32.9067 40.7143 34.1733 41.0609 35.24C41.4076 36.28 41.9276 37.08 42.6209 37.64C43.3409 38.2 44.2343 38.48 45.3009 38.48C46.2609 38.48 47.1543 38.2667 47.9809 37.84C48.8343 37.3867 49.6076 36.68 50.3009 35.72C51.0209 34.7333 51.6343 33.44 52.1409 31.84L52.7809 34.28C52.1676 36.3333 51.4076 37.8933 50.5009 38.96C49.6209 40.0267 48.6743 40.7467 47.6609 41.12C46.6743 41.4933 45.7143 41.68 44.7809 41.68ZM56.3809 41.68C55.4743 41.68 54.6876 41.5467 54.0209 41.28C53.3543 41.04 52.8076 40.6667 52.3809 40.16C51.9543 39.6267 51.6343 38.9733 51.4209 38.2C51.2343 37.4 51.1409 36.4667 51.1409 35.4V21.56C51.1409 21.16 51.2876 20.8667 51.5809 20.68C51.8743 20.4933 52.3143 20.4 52.9009 20.4C53.4609 20.4 53.8743 20.4933 54.1409 20.68C54.4343 20.84 54.5809 21.1067 54.5809 21.48V35.4C54.5809 36.6 54.7543 37.4533 55.1009 37.96C55.4743 38.44 56.1543 38.68 57.1409 38.68C57.3809 38.68 57.5543 38.84 57.6609 39.16C57.7943 39.4533 57.8343 39.8 57.7809 40.2C57.7543 40.5733 57.6209 40.9067 57.3809 41.2C57.1676 41.52 56.8343 41.68 56.3809 41.68Z"/>
<path d="M4.12 41.56C2.94667 41.56 2.36 41.1867 2.36 40.44V3.96C2.36 3.58666 2.50667 3.32 2.8 3.16C3.09333 2.97333 3.53333 2.88 4.12 2.88C5.29333 2.88 5.88 3.24 5.88 3.96V19.76H25.6V3.96C25.6 3.58666 25.7467 3.32 26.04 3.16C26.3333 2.97333 26.7733 2.88 27.36 2.88C28.5333 2.88 29.12 3.24 29.12 3.96V40.44C29.12 40.8133 28.9733 41.0933 28.68 41.28C28.3867 41.4667 27.9467 41.56 27.36 41.56C26.1867 41.56 25.6 41.1867 25.6 40.44V22.96H5.88V40.44C5.88 40.8133 5.73333 41.0933 5.44 41.28C5.14667 41.4667 4.70667 41.56 4.12 41.56Z"/>
</mask>
<path d="M152.385 41.6C151.825 41.6 151.399 41.5067 151.105 41.32C150.839 41.16 150.705 40.9067 150.705 40.56V26.24C150.705 25.12 150.532 24.3733 150.185 24C149.839 23.6 149.359 23.4 148.745 23.4C148.292 23.4 147.905 23.52 147.585 23.76C147.292 24 147.052 24.3467 146.865 24.8C146.705 25.2533 146.599 25.7867 146.545 26.4C146.519 26.8267 146.399 27.1467 146.185 27.36C145.972 27.5467 145.625 27.64 145.145 27.64C144.719 27.64 144.372 27.5467 144.105 27.36C143.839 27.1733 143.719 26.7333 143.745 26.04C143.799 24.8933 144.039 23.9067 144.465 23.08C144.865 22.2267 145.425 21.5733 146.145 21.12C146.892 20.64 147.759 20.4 148.745 20.4C149.492 20.4 150.145 20.4933 150.705 20.68C151.265 20.84 151.759 21.08 152.185 21.4C152.612 21.72 152.959 22.12 153.225 22.6C153.492 23.0533 153.692 23.56 153.825 24.12L153.865 24.28C154.292 23.5067 154.772 22.8667 155.305 22.36C155.839 21.8533 156.385 21.44 156.945 21.12C157.532 20.8 158.119 20.5733 158.705 20.44C159.292 20.3067 159.839 20.24 160.345 20.24C161.705 20.24 162.919 20.4933 163.985 21C165.052 21.5067 165.892 22.3067 166.505 23.4C167.145 24.4667 167.465 25.88 167.465 27.64V40.56C167.465 40.9067 167.319 41.16 167.025 41.32C166.732 41.5067 166.292 41.6 165.705 41.6C165.119 41.6 164.679 41.5067 164.385 41.32C164.119 41.16 163.985 40.9067 163.985 40.56V27.96C163.985 27 163.852 26.1867 163.585 25.52C163.319 24.8267 162.879 24.3067 162.265 23.96C161.679 23.6133 160.879 23.44 159.865 23.44C159.385 23.44 158.892 23.52 158.385 23.68C157.879 23.8133 157.359 24.0533 156.825 24.4C156.319 24.7467 155.839 25.2 155.385 25.76C154.932 26.32 154.519 27.0133 154.145 27.84V40.56C154.145 40.9067 153.999 41.16 153.705 41.32C153.412 41.5067 152.972 41.6 152.385 41.6ZM181.185 41.68C180.492 41.68 179.892 41.5867 179.385 41.4C178.879 41.2133 178.465 40.9467 178.145 40.6C177.852 40.2533 177.625 39.8267 177.465 39.32C177.332 38.7867 177.265 38.2 177.265 37.56V27.96C177.265 27.0267 177.132 26.2267 176.865 25.56C176.599 24.8667 176.159 24.3467 175.545 24C174.959 23.6267 174.172 23.44 173.185 23.44C172.492 23.44 171.785 23.56 171.065 23.8C170.372 24.04 169.705 24.44 169.065 25C168.425 25.5333 167.852 26.2667 167.345 27.2C166.865 28.1333 166.479 29.28 166.185 30.64H165.145C165.145 29.12 165.345 27.7333 165.745 26.48C166.172 25.2 166.759 24.0933 167.505 23.16C168.279 22.2267 169.185 21.5067 170.225 21C171.265 20.4933 172.412 20.24 173.665 20.24C175.025 20.24 176.225 20.4933 177.265 21C178.332 21.5067 179.172 22.3067 179.785 23.4C180.399 24.4667 180.705 25.88 180.705 27.64V37.16C180.705 37.5067 180.759 37.8 180.865 38.04C180.972 38.2533 181.119 38.4133 181.305 38.52C181.492 38.6267 181.705 38.68 181.945 38.68C182.265 38.68 182.519 38.64 182.705 38.56C182.892 38.48 183.065 38.3733 183.225 38.24C183.385 38.1067 183.572 37.96 183.785 37.8C183.972 37.6667 184.199 37.64 184.465 37.72C184.732 37.7733 184.972 37.9467 185.185 38.24C185.345 38.4267 185.452 38.6667 185.505 38.96C185.559 39.2267 185.505 39.4667 185.345 39.68C185.052 40.1067 184.679 40.4667 184.225 40.76C183.772 41.0533 183.279 41.28 182.745 41.44C182.239 41.6 181.719 41.68 181.185 41.68Z" stroke="black" stroke-width="4" mask="url(#path-1-outside-1_2_27)"/>
<path d="M142.195 2.48C142.809 2.48 143.289 2.62666 143.635 2.92C143.982 3.18667 144.155 3.57333 144.155 4.08C144.155 4.82666 144.102 5.6 143.995 6.4C143.915 7.17333 143.755 7.96 143.515 8.76C143.302 9.56 143.009 10.3333 142.635 11.08C142.289 11.8267 141.835 12.52 141.275 13.16C141.142 13.2933 140.982 13.44 140.795 13.6C140.635 13.7333 140.409 13.8 140.115 13.8C139.742 13.8 139.382 13.68 139.035 13.44C138.715 13.2 138.555 12.9067 138.555 12.56C138.555 12.4533 138.595 12.32 138.675 12.16C138.755 11.9733 138.849 11.7733 138.955 11.56C139.382 10.76 139.689 10.04 139.875 9.4C140.062 8.76 140.182 8.02667 140.235 7.2C140.289 6.34667 140.315 5.26666 140.315 3.96C140.315 3.45333 140.489 3.08 140.835 2.84C141.182 2.6 141.635 2.48 142.195 2.48Z" stroke="black" stroke-width="4" mask="url(#path-1-outside-1_2_27)"/>
<path d="M123.296 41C122.896 41 122.603 40.88 122.416 40.64C122.256 40.4 122.176 39.9867 122.176 39.4C122.176 38.7867 122.256 38.3733 122.416 38.16C122.603 37.92 122.896 37.8 123.296 37.8H127.496V6.72H123.296C122.896 6.72 122.603 6.6 122.416 6.36C122.256 6.12 122.176 5.70666 122.176 5.12C122.176 4.50667 122.256 4.09333 122.416 3.88C122.603 3.64 122.896 3.52 123.296 3.52H135.256C135.656 3.52 135.936 3.64 136.096 3.88C136.256 4.09333 136.336 4.50667 136.336 5.12C136.336 5.70666 136.256 6.12 136.096 6.36C135.936 6.6 135.656 6.72 135.256 6.72H130.976V37.8H135.256C135.656 37.8 135.936 37.92 136.096 38.16C136.256 38.3733 136.336 38.7867 136.336 39.4C136.336 39.9867 136.256 40.4 136.096 40.64C135.936 40.88 135.656 41 135.256 41H123.296Z" stroke="black" stroke-width="4" mask="url(#path-1-outside-1_2_27)"/>
<path d="M97.6403 41.76C95.8536 41.76 94.2536 41.2933 92.8403 40.36C91.4536 39.4267 90.3603 38.16 89.5603 36.56C88.7603 34.9333 88.3603 33.08 88.3603 31C88.3603 29.4267 88.587 27.9867 89.0403 26.68C89.4936 25.3733 90.1336 24.24 90.9603 23.28C91.8136 22.32 92.8003 21.5733 93.9203 21.04C95.0403 20.5067 96.2803 20.24 97.6403 20.24C99.427 20.24 101.014 20.7067 102.4 21.64C103.787 22.5467 104.88 23.8133 105.68 25.44C106.48 27.0667 106.88 28.92 106.88 31C106.88 32.2533 106.734 33.4267 106.44 34.52C106.147 35.6133 105.72 36.6 105.16 37.48C104.627 38.36 103.974 39.12 103.2 39.76C102.454 40.4 101.6 40.8933 100.64 41.24C99.707 41.5867 98.707 41.76 97.6403 41.76ZM97.6403 38.56C98.5203 38.56 99.307 38.3867 100 38.04C100.72 37.6933 101.32 37.1867 101.8 36.52C102.307 35.8533 102.694 35.0533 102.96 34.12C103.227 33.1867 103.36 32.1467 103.36 31C103.36 29.4533 103.134 28.12 102.68 27C102.227 25.8533 101.574 24.9733 100.72 24.36C99.867 23.7467 98.8403 23.44 97.6403 23.44C96.7603 23.44 95.9603 23.6133 95.2403 23.96C94.5203 24.3067 93.907 24.8133 93.4003 25.48C92.9203 26.1467 92.547 26.9467 92.2803 27.88C92.0136 28.7867 91.8803 29.8267 91.8803 31C91.8803 32.5467 92.107 33.8933 92.5603 35.04C93.0403 36.16 93.707 37.0267 94.5603 37.64C95.4136 38.2533 96.4403 38.56 97.6403 38.56Z" stroke="black" stroke-width="4" mask="url(#path-1-outside-1_2_27)"/>
<path d="M82.3203 41.68C81.947 41.68 81.6803 41.52 81.5203 41.2C81.3336 40.9067 81.267 40.5733 81.3203 40.2C81.347 39.8 81.507 39.4533 81.8003 39.16C82.0936 38.84 82.5203 38.68 83.0803 38.68C83.8803 38.68 84.6003 38.5733 85.2403 38.36C85.8536 38.1467 86.387 37.8267 86.8403 37.4C87.2936 36.9733 87.6536 36.44 87.9203 35.8C88.2136 35.16 88.4136 34.4133 88.5203 33.56C88.5736 33.16 88.7736 32.9067 89.1203 32.8C89.467 32.6667 89.8003 32.6667 90.1203 32.8C90.467 32.9067 90.6136 33.16 90.5603 33.56C90.4536 34.9733 90.1736 36.2 89.7203 37.24C89.267 38.2533 88.6803 39.0933 87.9603 39.76C87.2403 40.4 86.4003 40.88 85.4403 41.2C84.507 41.52 83.467 41.68 82.3203 41.68Z" stroke="black" stroke-width="4" mask="url(#path-1-outside-1_2_27)"/>
<path d="M82.3516 41.68C81.4449 41.68 80.6582 41.5467 79.9916 41.28C79.3249 41.04 78.7782 40.6667 78.3516 40.16C77.9249 39.6267 77.6049 38.9733 77.3916 38.2C77.2049 37.4 77.1116 36.4667 77.1116 35.4V3.92C77.1116 3.57333 77.2449 3.32 77.5116 3.16C77.8049 2.97333 78.2316 2.88 78.7916 2.88C79.3782 2.88 79.8182 2.97333 80.1116 3.16C80.4049 3.32 80.5516 3.57333 80.5516 3.92V35.4C80.5516 36.6 80.7249 37.4533 81.0716 37.96C81.4449 38.44 82.1249 38.68 83.1116 38.68C83.4849 38.68 83.7649 38.84 83.9516 39.16C84.1382 39.4533 84.2049 39.8 84.1516 40.2C84.1249 40.5733 83.9649 40.9067 83.6716 41.2C83.3782 41.52 82.9382 41.68 82.3516 41.68Z" stroke="black" stroke-width="4" mask="url(#path-1-outside-1_2_27)"/>
<path d="M69.3516 41.68C68.9782 41.68 68.7116 41.52 68.5516 41.2C68.3649 40.9067 68.2982 40.5733 68.3516 40.2C68.3782 39.8 68.5382 39.4533 68.8316 39.16C69.1249 38.84 69.5516 38.68 70.1116 38.68C70.9916 38.68 71.8049 38.5333 72.5516 38.24C73.3249 37.9467 74.0182 37.5467 74.6316 37.04C75.2449 36.5067 75.7916 35.88 76.2716 35.16C76.7516 34.44 77.1516 33.6667 77.4716 32.84C77.6316 32.44 77.8582 32.2667 78.1516 32.32C78.4449 32.3467 78.6982 32.4933 78.9116 32.76C79.1516 33 79.2316 33.2667 79.1516 33.56C78.7516 34.84 78.2316 35.9867 77.5916 37C76.9782 37.9867 76.2582 38.84 75.4316 39.56C74.6316 40.2533 73.7116 40.7733 72.6716 41.12C71.6582 41.4933 70.5516 41.68 69.3516 41.68Z" stroke="black" stroke-width="4" mask="url(#path-1-outside-1_2_27)"/>
<path d="M69.3828 41.68C68.4761 41.68 67.6895 41.5467 67.0228 41.28C66.3561 41.04 65.8095 40.6667 65.3828 40.16C64.9561 39.6267 64.6361 38.9733 64.4228 38.2C64.2361 37.4 64.1428 36.4667 64.1428 35.4V3.92C64.1428 3.57333 64.2761 3.32 64.5428 3.16C64.8361 2.97333 65.2628 2.88 65.8228 2.88C66.4095 2.88 66.8495 2.97333 67.1428 3.16C67.4361 3.32 67.5828 3.57333 67.5828 3.92V35.4C67.5828 36.6 67.7561 37.4533 68.1028 37.96C68.4761 38.44 69.1561 38.68 70.1428 38.68C70.5161 38.68 70.7961 38.84 70.9828 39.16C71.1695 39.4533 71.2361 39.8 71.1828 40.2C71.1561 40.5733 70.9961 40.9067 70.7028 41.2C70.4095 41.52 69.9695 41.68 69.3828 41.68Z" stroke="black" stroke-width="4" mask="url(#path-1-outside-1_2_27)"/>
<path d="M56.3828 41.68C56.0095 41.68 55.7428 41.52 55.5828 41.2C55.3961 40.9067 55.3295 40.5733 55.3828 40.2C55.4095 39.8 55.5695 39.4533 55.8628 39.16C56.1561 38.84 56.5828 38.68 57.1428 38.68C58.0228 38.68 58.8361 38.5333 59.5828 38.24C60.3561 37.9467 61.0495 37.5467 61.6628 37.04C62.2761 36.5067 62.8228 35.88 63.3028 35.16C63.7828 34.44 64.1828 33.6667 64.5028 32.84C64.6628 32.44 64.8895 32.2667 65.1828 32.32C65.4761 32.3467 65.7295 32.4933 65.9428 32.76C66.1828 33 66.2628 33.2667 66.1828 33.56C65.7828 34.84 65.2628 35.9867 64.6228 37C64.0095 37.9867 63.2895 38.84 62.4628 39.56C61.6628 40.2533 60.7428 40.7733 59.7028 41.12C58.6895 41.4933 57.5828 41.68 56.3828 41.68Z" stroke="black" stroke-width="4" mask="url(#path-1-outside-1_2_27)"/>
<path d="M44.7809 41.68C43.2609 41.68 41.9143 41.32 40.7409 40.6C39.5676 39.8533 38.6476 38.7333 37.9809 37.24C37.3143 35.7467 36.9809 33.8667 36.9809 31.6C36.9809 30.2133 37.1143 28.9333 37.3809 27.76C37.6476 26.5867 38.0209 25.5333 38.5009 24.6C39.0076 23.6667 39.6209 22.88 40.3409 22.24C41.0876 21.6 41.9276 21.1067 42.8609 20.76C43.7943 20.4133 44.8209 20.24 45.9409 20.24C47.0343 20.24 48.1543 20.4533 49.3009 20.88C50.4476 21.3067 51.4743 21.8667 52.3809 22.56V25.56C51.3143 24.7067 50.2876 24.1333 49.3009 23.84C48.3409 23.5467 47.3409 23.4 46.3009 23.4C45.6076 23.4 44.9543 23.5067 44.3409 23.72C43.7543 23.9333 43.2209 24.2533 42.7409 24.68C42.2876 25.1067 41.8876 25.64 41.5409 26.28C41.2209 26.92 40.9676 27.6667 40.7809 28.52C40.6209 29.3733 40.5409 30.3467 40.5409 31.44C40.5409 32.9067 40.7143 34.1733 41.0609 35.24C41.4076 36.28 41.9276 37.08 42.6209 37.64C43.3409 38.2 44.2343 38.48 45.3009 38.48C46.2609 38.48 47.1543 38.2667 47.9809 37.84C48.8343 37.3867 49.6076 36.68 50.3009 35.72C51.0209 34.7333 51.6343 33.44 52.1409 31.84L52.7809 34.28C52.1676 36.3333 51.4076 37.8933 50.5009 38.96C49.6209 40.0267 48.6743 40.7467 47.6609 41.12C46.6743 41.4933 45.7143 41.68 44.7809 41.68ZM56.3809 41.68C55.4743 41.68 54.6876 41.5467 54.0209 41.28C53.3543 41.04 52.8076 40.6667 52.3809 40.16C51.9543 39.6267 51.6343 38.9733 51.4209 38.2C51.2343 37.4 51.1409 36.4667 51.1409 35.4V21.56C51.1409 21.16 51.2876 20.8667 51.5809 20.68C51.8743 20.4933 52.3143 20.4 52.9009 20.4C53.4609 20.4 53.8743 20.4933 54.1409 20.68C54.4343 20.84 54.5809 21.1067 54.5809 21.48V35.4C54.5809 36.6 54.7543 37.4533 55.1009 37.96C55.4743 38.44 56.1543 38.68 57.1409 38.68C57.3809 38.68 57.5543 38.84 57.6609 39.16C57.7943 39.4533 57.8343 39.8 57.7809 40.2C57.7543 40.5733 57.6209 40.9067 57.3809 41.2C57.1676 41.52 56.8343 41.68 56.3809 41.68Z" stroke="black" stroke-width="4" mask="url(#path-1-outside-1_2_27)"/>
<path d="M4.12 41.56C2.94667 41.56 2.36 41.1867 2.36 40.44V3.96C2.36 3.58666 2.50667 3.32 2.8 3.16C3.09333 2.97333 3.53333 2.88 4.12 2.88C5.29333 2.88 5.88 3.24 5.88 3.96V19.76H25.6V3.96C25.6 3.58666 25.7467 3.32 26.04 3.16C26.3333 2.97333 26.7733 2.88 27.36 2.88C28.5333 2.88 29.12 3.24 29.12 3.96V40.44C29.12 40.8133 28.9733 41.0933 28.68 41.28C28.3867 41.4667 27.9467 41.56 27.36 41.56C26.1867 41.56 25.6 41.1867 25.6 40.44V22.96H5.88V40.44C5.88 40.8133 5.73333 41.0933 5.44 41.28C5.14667 41.4667 4.70667 41.56 4.12 41.56Z" stroke="black" stroke-width="4" mask="url(#path-1-outside-1_2_27)"/>
</svg>
