<svg width="65" height="91" viewBox="0 0 65 91" fill="none" xmlns="http://www.w3.org/2000/svg">
<path d="M64.887 17.8385L58.986 83.4694L32.4604 90.7701L6.00792 83.4795L0.112976 17.8385H64.887Z" fill="#E44D26"/>
<path d="M32.5 85.1896L53.934 79.2902L58.9766 23.2054H32.5V85.1896Z" fill="#F16529"/>
<path d="M21.0285 39.307H32.5V31.2563H12.1664L12.3604 33.4161L14.3536 55.6015H32.5V47.5509H21.7697L21.0285 39.307ZM22.8561 59.6269H14.7159L15.8519 72.2676L32.4627 76.8453L32.5 76.8353V68.4592L32.4645 68.4685L23.4335 66.0476L22.8561 59.6269Z" fill="#EBEBEB"/>
<path d="M6.13947 0H10.2604V4.04206H14.0301V0H18.1513V12.2404H14.0304V8.1416H10.2606V12.2404H6.13972L6.13947 0ZM23.5701 4.05921H19.9428V0H31.3214V4.05921H27.6918V12.2404H23.5709V4.05921H23.5701ZM33.1272 0H37.424L40.0672 4.30095L42.7078 0H47.0064V12.2404H42.9023V6.17338L40.0672 10.5255H39.9961L37.1592 6.17338V12.2404H33.1272V0ZM49.0572 0H53.1794V8.19454H58.9746V12.2404H49.057L49.0572 0Z" fill="black"/>
<path d="M32.4721 55.6015H42.4574L41.5159 66.0425L32.4718 68.466V76.8415L49.0958 72.2676L49.2177 70.9074L51.1235 49.7127L51.3213 47.5509H32.4721V55.6015ZM32.4721 39.2873V39.3069H52.0591L52.2216 37.4975L52.5913 33.4161L52.7851 31.2563H32.4721V39.2873Z" fill="white"/>
</svg>
