<svg width="64" height="64" viewBox="0 0 64 64" fill="none" xmlns="http://www.w3.org/2000/svg">
<path d="M42.5774 19.8047C41.8647 19.2642 41.0684 19.0375 40.2745 19.1501L40.2639 19.1519C39.9044 19.2064 39.5583 19.3279 39.2436 19.51L39.209 19.53C37.7472 20.4036 36.9653 22.5259 37.264 24.8111C37.4809 26.4832 38.2534 27.9701 39.3309 28.7887C40.0434 29.3301 40.8408 29.5561 41.6374 29.442L41.646 29.4406C42.0055 29.3861 42.3516 29.2646 42.6663 29.0825C44.155 28.223 44.9526 26.0916 44.6539 23.7739C44.4309 22.1075 43.6557 20.6236 42.5774 19.8047ZM41.2754 31.1566C40.13 31.1366 39.047 31.1173 38.0205 30.5521C35.1842 28.9849 33.4718 28.0392 31.1781 29.3635C28.8845 30.6877 28.8451 32.6448 28.7809 35.8866C28.7567 37.0598 28.2306 38.0088 27.6737 39.0146C27.035 40.1672 26.375 41.3581 26.6287 42.8053C26.7078 43.3342 26.8876 43.8429 27.1584 44.304C28.282 46.2501 30.7119 46.9584 32.5741 45.8833C33.535 45.3285 34.3654 44.4052 35.244 43.428C36.0888 42.4884 36.9623 41.5172 37.8923 40.9802C38.8223 40.4433 40.0975 40.1741 41.3298 39.9144C42.612 39.6411 43.8219 39.3865 44.7855 38.8302C46.645 37.7566 47.2439 35.2996 46.1203 33.3535C45.8543 32.8892 45.5017 32.4802 45.0818 32.1486C43.9547 31.2041 42.5925 31.18 41.2754 31.1566ZM24.3413 30.7736C25.4522 31.2099 26.5265 31.1829 27.3667 30.6979C27.4813 30.6316 27.591 30.557 27.6946 30.4746C29.2982 29.2052 29.1555 26.4365 27.3676 24.1673C26.6166 23.2129 25.6563 22.4747 24.6674 22.087C23.5586 21.6518 22.4835 21.6799 21.6439 22.1646C21.5292 22.2309 21.4196 22.3055 21.3159 22.3879C19.7123 23.6573 19.855 26.426 21.6429 28.6952C22.3924 29.6483 23.3522 30.3855 24.3413 30.7736ZM33.8827 26.9019C34.0059 26.8533 34.1254 26.7957 34.2401 26.7295C35.0808 26.2441 35.6407 25.3275 35.8183 24.1474C35.9762 23.097 35.8155 21.8985 35.3664 20.7705C34.2958 18.0886 31.9694 16.5807 30.0677 17.3336C29.9444 17.3822 29.825 17.4398 29.7103 17.506C28.8713 17.9919 28.3094 18.9089 28.132 20.0868C27.9732 21.137 28.1324 22.3378 28.5846 23.4661C29.6552 26.148 31.9816 27.6559 33.8827 26.9019ZM26.011 38.4675L26.017 38.4604C26.5131 37.8282 26.7159 37.0255 26.603 36.1386C26.4316 34.794 25.5316 33.3828 24.1931 32.3584C22.3403 30.9408 20.0959 30.565 18.6088 31.4235C18.2936 31.6049 18.0154 31.8439 17.7885 32.1281L17.7825 32.1351C17.2868 32.7642 17.0853 33.5691 17.1982 34.456C17.3696 35.8006 18.2695 37.2118 19.6081 38.2362C21.4608 39.6538 23.7053 40.0296 25.1924 39.1711C25.5069 38.9898 25.7846 38.7512 26.011 38.4675Z" fill="black" fill-opacity="0.5"/>
</svg>
