<svg width="115" height="79" viewBox="0 0 115 79" fill="none" xmlns="http://www.w3.org/2000/svg">
<path d="M34.2103 52.1303L37.7052 63.5586C38.4904 66.1534 38.8179 67.9647 38.6867 68.9971C40.5981 63.8379 41.9337 58.2156 42.6935 52.1303H46.896C45.0888 62.0374 42.7059 69.2364 39.7473 73.7274C37.4424 77.1882 34.9173 78.9185 32.1677 78.9185C31.4345 78.9185 30.5307 78.6953 29.4582 78.2521V75.864C29.9822 75.9414 30.597 75.9829 31.304 75.9829C32.5866 75.9826 33.621 75.6248 34.4072 74.9094C35.349 74.0382 35.8205 73.059 35.8205 71.9736C35.8205 71.2324 35.4528 69.7115 34.7208 67.4108L29.8513 52.1303H34.2103ZM7.4622 45.1061L13.8636 64.7895H13.9031L20.3438 45.1061H25.6059C26.7582 54.8677 27.4387 63.7992 27.6476 71.895H23.2111C23.0548 64.3273 22.623 57.2105 21.9156 50.5446H21.877L15.1212 71.895H11.7426L5.02766 50.5446H4.98812C4.49024 56.9464 4.17609 64.0632 4.04566 71.895H0C0.261445 62.3697 0.915732 53.4409 1.96286 45.1061H7.4622Z" fill="#00758F"/>
<path d="M79.1744 44.7086C86.0602 44.7086 89.5032 49.1421 89.5032 58.0048C89.5032 62.8209 88.4678 66.4587 86.3989 68.9163C86.0261 69.3654 85.6139 69.7534 85.18 70.1129L90.0529 72.541L90.0481 72.5408L88.318 75.5519L81.9721 71.8203C80.92 72.1342 79.7632 72.2911 78.5016 72.2911C75.1206 72.2911 72.5951 71.2981 70.9254 69.3145C69.0925 67.1202 68.1766 63.6657 68.1766 58.9569C68.1766 54.168 69.2102 50.544 71.2798 48.0832C73.1647 45.8323 75.7967 44.7086 79.1744 44.7086ZM58.088 44.7473C60.5491 44.7473 62.7869 45.411 64.8025 46.7336L63.7787 49.0328C62.054 48.2939 60.3534 47.9229 58.6765 47.9229C57.3158 47.9229 56.2673 48.253 55.5365 48.9171C54.8015 49.5754 54.3469 50.4224 54.3469 51.4551C54.3469 53.0419 55.4686 54.4179 57.5398 55.5805C58.2183 55.9543 58.8944 56.3324 59.5682 56.7148L59.7227 56.8024L59.8002 56.8463L59.955 56.9339L60.0322 56.9778L60.1868 57.0656C61.7545 57.9564 63.2298 58.8066 63.2298 58.8066C65.3007 60.2881 66.333 61.8677 66.333 64.4692C66.333 66.7412 65.5069 68.6062 63.86 70.0656C62.2121 71.5183 59.9981 72.2468 57.2255 72.2468C54.6324 72.2468 52.1193 71.4083 49.6849 69.7455L50.8237 67.4443C52.9186 68.5025 54.8143 69.0311 56.5167 69.0311C58.1132 69.0311 59.3629 68.6719 60.267 67.9624C61.1692 67.2478 61.7099 66.2512 61.7099 64.9874C61.7099 63.3967 60.612 62.037 58.5979 60.8964C57.9675 60.5453 57.3389 60.1909 56.7123 59.8331L56.558 59.7451C56.2745 59.5837 55.989 59.4203 55.7094 59.2602L55.5578 59.1733C54.1978 58.3937 53.022 57.7126 53.022 57.7126C51.0086 56.2283 49.9989 54.6359 49.9989 52.0119C49.9989 49.8418 50.7518 48.0877 52.2554 46.7533C53.7626 45.416 55.7069 44.7473 58.088 44.7473ZM97.5957 45.1059V68.5994H105.96V71.8948H93.3537V45.1061L97.5957 45.1059ZM110.607 68.6096V69.1665H109.688V71.8918H108.985V69.1665H108.029V68.6096H110.607ZM112.305 68.6096L113.188 70.847L113.999 68.6096H114.996V71.8918H114.333V69.3939L113.41 71.8918H112.932L112.008 69.3939H111.972V71.8918H111.345V68.6096H112.305ZM78.7413 48.0031C74.6835 48.0031 72.6535 51.3781 72.6535 58.1237C72.6535 61.9876 73.1914 64.7895 74.2653 66.5359C75.2599 68.1521 76.8175 68.9587 78.9385 68.9587C82.9963 68.9587 85.0261 65.5574 85.0261 58.7579C85.0261 54.948 84.4882 52.1701 83.4157 50.4229C82.42 48.8103 80.863 48.0031 78.7415 48.0031" fill="#F29111"/>
<path d="M68.1056 1.65992C69.4517 -1.67347 74.1584 0.850907 75.9849 2.01531C76.4326 2.30663 76.946 2.92211 77.4593 3.1496C78.26 3.18129 79.0601 3.24445 79.8621 3.27818C81.3666 3.63447 82.7758 3.92557 83.9613 4.60601C89.4705 7.87579 93.0568 11.2078 96.3574 16.7116C97.0627 17.8773 97.4151 19.1388 97.9913 20.4004C98.7909 22.2807 99.6893 24.2546 100.617 26.0327C101.033 26.8756 101.354 27.813 101.931 28.5249C102.157 28.8504 102.797 28.9464 103.179 29.1408C104.237 29.6925 105.518 30.1112 106.512 30.7586C108.37 31.9258 110.165 33.3165 111.798 34.7403C112.406 35.2899 112.821 36.0679 113.401 36.6492V36.9426C112.886 37.1017 112.373 37.2647 111.86 37.3953C110.739 37.6855 109.746 37.6199 108.658 37.9103C107.986 38.1068 107.152 38.366 106.447 38.4318L106.512 38.4979C106.927 39.692 109.17 40.6631 110.196 41.3772C111.442 42.2836 112.597 43.3828 113.527 44.6452C113.848 44.9673 114.169 45.2605 114.488 45.5817C114.711 45.9072 114.774 46.3282 115 46.6184V46.7166C114.75 46.6277 114.57 46.4579 114.399 46.2804L114.298 46.1734C114.196 46.067 114.093 45.9624 113.976 45.8762C113.269 45.3895 112.567 44.8073 111.86 44.3548C110.644 43.5775 109.235 43.1263 107.986 42.3461C107.281 41.8931 106.608 41.3772 105.935 40.8589C105.325 40.4046 104.654 39.5322 104.271 38.8848C104.045 38.5271 104.014 38.1068 103.756 37.848C103.802 37.4159 104.195 37.2876 104.591 37.1821L104.683 37.1579C104.819 37.1221 104.953 37.0863 105.07 37.039C106.735 36.3264 108.721 36.0679 111.284 36.1327C111.188 35.4839 109.586 34.6756 109.074 34.2871C108.048 33.5415 106.961 32.7635 105.872 32.0849C105.295 31.7295 104.301 31.4701 103.662 31.1797C102.797 30.8234 100.874 30.4673 100.395 29.7887C99.5806 28.7189 98.9957 27.4429 98.4279 26.154L98.2734 25.8022L98.1184 25.4507C97.4473 23.8985 96.6135 22.2803 95.9408 20.691C95.5891 19.9157 95.4276 19.2353 95.0424 18.4917C92.7048 13.9287 89.2452 10.1084 85.0506 7.42171C83.6722 6.54751 82.1352 5.73849 80.4385 5.18866C79.4769 4.89598 78.3229 5.05783 77.2984 4.83328H76.6242C76.0487 4.66984 75.5683 4.05505 75.1193 3.7309C74.1276 3.05227 73.1344 2.5966 71.9485 2.11242C71.5329 1.9182 70.3463 1.46593 69.9322 1.822C69.6757 1.88696 69.5456 1.98452 69.4825 2.24393C69.2273 2.63101 69.4517 3.21412 69.6105 3.57109C70.0916 4.60556 70.7637 5.22035 71.3737 6.09456C71.9164 6.86985 72.5904 7.74405 72.9752 8.58702C73.8053 10.399 74.1919 12.4066 74.9612 14.2184C75.2464 14.8998 75.6977 15.6751 76.113 16.2896C76.4649 16.7774 77.1048 17.1301 77.2984 17.7476C77.6843 18.395 76.7207 20.5312 76.4977 21.2096C75.6633 23.8641 75.825 27.554 76.7859 29.855L76.8371 29.9763L76.8883 30.0992C77.2391 30.942 77.6147 31.8495 78.5475 32.0851C78.6117 32.0208 78.5475 32.0546 78.6748 32.0208C78.9006 30.2398 78.9641 28.5247 79.5733 27.1312C79.9252 26.2599 80.628 25.644 81.1098 24.9328C81.431 25.1265 81.431 25.7108 81.6224 26.0974C82.0393 27.1002 82.4869 28.1996 83.0008 29.2053C84.0556 31.2765 85.2424 33.2846 86.5872 35.0964C87.0375 35.7436 87.6765 36.4559 88.2529 37.0388C88.5096 37.2645 88.7971 37.3949 88.99 37.6853H89.0529V37.7831C88.092 37.4261 87.4829 36.4242 86.7165 35.8393C85.2736 34.7399 83.5457 33.0888 82.5512 31.5045C82.1352 30.595 81.6855 29.7233 81.2372 28.8183V28.7528C81.0456 29.0114 81.1098 29.268 81.0139 29.6592C80.598 31.2765 80.9182 33.1216 79.4769 33.7034C77.8431 34.3847 76.6244 32.6039 76.113 31.7947C74.4787 29.1087 74.0311 24.5774 75.1835 20.9196C75.4396 20.1099 75.4744 19.1388 75.9214 18.4924C75.8248 17.9079 75.3778 17.7481 75.1193 17.39C74.671 16.7779 74.2871 16.0649 73.936 15.3851C73.2618 14.0573 72.782 12.4707 72.2701 11.0467C72.0451 10.4651 71.9806 9.88135 71.7562 9.33084C71.3735 8.49059 70.668 7.64762 70.1237 6.90425C69.3868 5.83583 67.2404 3.76508 68.1056 1.65992ZM78.6111 8.00143C78.6966 8.0879 78.8 8.1635 78.9069 8.23797L79.0358 8.32716C79.2076 8.44713 79.3741 8.57344 79.476 8.74547C79.6377 8.97319 79.6678 9.19797 79.8615 9.42614C79.8615 10.2041 79.6377 10.7214 79.1861 11.0437C79.1861 11.0437 79.1553 11.0777 79.1236 11.1094C78.8676 10.5908 78.6432 10.0749 78.3853 9.55675C78.0677 9.10448 77.6187 8.7457 77.36 8.22892H77.2978V8.16395C77.6843 8.06775 78.0677 8.00143 78.6111 8.00143Z" fill="#00758F"/>
</svg>
