<svg width="132" height="81" viewBox="0 0 132 81" fill="none" xmlns="http://www.w3.org/2000/svg">
<path d="M65.2549 80.7663C64.8081 80.7663 64.391 80.6472 64.0035 80.4385L60.0406 78.0833C59.4446 77.7551 59.7426 77.636 59.9215 77.5764C60.7259 77.3081 60.8749 77.2483 61.7092 76.7715C61.7987 76.7117 61.918 76.7416 62.0072 76.8012L65.0466 78.6198C65.1657 78.6794 65.3147 78.6794 65.4039 78.6198L77.2929 71.7328C77.412 71.6732 77.4719 71.5537 77.4719 71.4049V57.6607C77.4719 57.5113 77.412 57.3924 77.2929 57.3326L65.4039 50.4754C65.2848 50.4156 65.1358 50.4156 65.0466 50.4754L53.1576 57.3326C53.0384 57.3922 52.9786 57.5413 52.9786 57.6604V71.4046C52.9786 71.5241 53.0384 71.6729 53.1576 71.7328L56.4055 73.611C58.1635 74.5053 59.2659 73.4619 59.2659 72.4184V58.853C59.2659 58.6742 59.4149 58.4952 59.6235 58.4952H61.143C61.322 58.4952 61.5006 58.6443 61.5006 58.853V72.4184C61.5006 74.7736 60.2193 76.1452 57.9846 76.1452C57.2993 76.1452 56.7631 76.1452 55.2433 75.3997L52.1147 73.611C51.34 73.1639 50.8633 72.3289 50.8633 71.4346V57.6904C50.8633 56.796 51.34 55.961 52.1147 55.5139L64.0035 48.6269C64.7485 48.2095 65.7617 48.2095 66.5066 48.6269L78.3953 55.5139C79.1701 55.961 79.647 56.796 79.647 57.6904V71.4346C79.647 72.3289 79.1701 73.1639 78.3953 73.611L66.5066 80.4981C66.1191 80.6771 65.672 80.7663 65.2549 80.7663ZM68.9202 71.3154C63.706 71.3154 62.6332 68.9303 62.6332 66.903C62.6332 66.7239 62.7822 66.5452 62.9908 66.5452H64.5402C64.7189 66.5452 64.8679 66.6643 64.8679 66.8434C65.1064 68.4234 65.7917 69.1986 68.9501 69.1986C71.453 69.1986 72.526 68.6321 72.526 67.2904C72.526 66.5152 72.2277 65.949 68.3244 65.5613C65.0765 65.2332 63.0503 64.5178 63.0503 61.924C63.0503 59.509 65.0767 58.0778 68.4734 58.0778C72.2872 58.0778 74.1646 59.3898 74.4031 62.2516C74.4031 62.3412 74.3733 62.4308 74.3137 62.5202C74.2538 62.5798 74.1646 62.6394 74.0752 62.6394H72.5257C72.3767 62.6394 72.2277 62.5202 72.198 62.3711C71.8404 60.7315 70.9167 60.1947 68.4734 60.1947C65.7321 60.1947 65.4042 61.1489 65.4042 61.8642C65.4042 62.7289 65.7917 62.9972 69.4864 63.4741C73.1514 63.9514 74.8798 64.637 74.8798 67.2009C74.8499 69.8246 72.7046 71.3154 68.9202 71.3154Z" fill="#539E43"/>
<path d="M28.3666 27.0118C28.3666 26.4752 28.0686 25.968 27.5919 25.6998L14.958 18.4252C14.7492 18.3058 14.511 18.2462 14.2728 18.2163H14.1534C13.9152 18.2163 13.6767 18.3058 13.4681 18.4252L0.834297 25.6998C0.357344 25.968 0.0595703 26.4749 0.0595703 27.0118L0.0894766 46.5696C0.0894766 46.8379 0.238492 47.1062 0.476711 47.2256C0.715187 47.3747 1.01296 47.3747 1.22179 47.2256L8.73058 42.9324C9.20727 42.6641 9.5053 42.1572 9.5053 41.6206V32.4677C9.5053 31.9311 9.80308 31.4242 10.28 31.1559L13.4681 29.3074C13.7066 29.1583 13.9747 29.0984 14.2429 29.0984C14.511 29.0984 14.7791 29.1583 14.9879 29.3074L18.1761 31.1559C18.653 31.4242 18.9508 31.9308 18.9508 32.4677V41.6206C18.9508 42.1572 19.2488 42.6641 19.7255 42.9324L27.2343 47.2256C27.3503 47.2987 27.4846 47.3375 27.6217 47.3375C27.7587 47.3375 27.893 47.2987 28.009 47.2256C28.2475 47.1062 28.3965 46.8379 28.3965 46.5696L28.3666 27.0118ZM89.0925 0.0895772C88.8543 -0.0298591 88.5563 -0.0298591 88.3475 0.0895772C88.1092 0.238679 87.9602 0.477036 87.9602 0.745316V20.1247C87.9602 20.3035 87.871 20.4822 87.6921 20.6017C87.5134 20.6909 87.3346 20.6909 87.1559 20.6017L83.9974 18.783C83.7658 18.6512 83.5039 18.5819 83.2375 18.5819C82.971 18.5819 82.7092 18.6512 82.4776 18.783L69.8437 26.0875C69.3671 26.3558 69.069 26.8627 69.069 27.3992V41.9782C69.069 42.5147 69.3671 43.0219 69.8437 43.2902L82.4776 50.5946C82.7092 50.7265 82.971 50.7958 83.2375 50.7958C83.5039 50.7958 83.7658 50.7265 83.9974 50.5946L96.6312 43.2902C97.1079 43.0219 97.406 42.515 97.406 41.9782V5.63498C97.406 5.0685 97.1079 4.56186 96.6312 4.29332L89.0925 0.0895772ZM87.9306 37.1783C87.9306 37.3274 87.871 37.4466 87.7517 37.5062L83.4312 40.0105C83.3709 40.04 83.3046 40.0553 83.2375 40.0553C83.1703 40.0553 83.1041 40.04 83.0437 40.0105L78.7233 37.5062C78.604 37.4466 78.5444 37.2975 78.5444 37.1783V32.1694C78.5444 32.0203 78.604 31.9012 78.7233 31.8416L83.0437 29.337C83.1041 29.3075 83.1703 29.2921 83.2375 29.2921C83.3046 29.2921 83.3709 29.3075 83.4312 29.337L87.7517 31.8416C87.871 31.9009 87.9306 32.0503 87.9306 32.1694V37.1783ZM131.136 32.0503C131.613 31.782 131.881 31.2751 131.881 30.7383V27.1905C131.881 26.654 131.583 26.1471 131.136 25.8788L118.591 18.6043C118.36 18.4724 118.098 18.4031 117.832 18.4031C117.565 18.4031 117.303 18.4724 117.072 18.6043L104.438 25.9085C103.961 26.1767 103.663 26.6836 103.663 27.2202V41.7994C103.663 42.336 103.961 42.8429 104.438 43.1111L116.982 50.2665C117.459 50.5348 118.025 50.5348 118.472 50.2665L126.07 46.0333C126.309 45.9139 126.458 45.6456 126.458 45.3773C126.458 45.1091 126.309 44.8408 126.07 44.7213L113.377 37.4169C113.138 37.2678 112.989 37.0294 112.989 36.7612V32.1996C112.989 31.9313 113.138 31.6631 113.377 31.5436L117.34 29.2777C117.456 29.2046 117.59 29.1658 117.727 29.1658C117.864 29.1658 117.998 29.2046 118.114 29.2777L122.078 31.5436C122.316 31.6927 122.465 31.9311 122.465 32.1996V35.7773C122.465 36.0456 122.614 36.3139 122.852 36.433C122.968 36.5061 123.103 36.5449 123.24 36.5449C123.377 36.5449 123.511 36.5061 123.627 36.433L131.136 32.0503Z" fill="#333333"/>
<path d="M117.638 31.3643C117.682 31.3351 117.734 31.3196 117.787 31.3196C117.84 31.3196 117.892 31.3351 117.936 31.3643L120.35 32.7656C120.439 32.8254 120.498 32.9147 120.498 33.0338V35.8366C120.498 35.9558 120.439 36.0453 120.35 36.1049L117.936 37.5061C117.892 37.5353 117.84 37.5509 117.787 37.5509C117.734 37.5509 117.682 37.5353 117.638 37.5061L115.224 36.1049C115.135 36.0453 115.075 35.9558 115.075 35.8366V33.0341C115.075 32.9147 115.135 32.8252 115.224 32.7658L117.638 31.3643Z" fill="#539E43"/>
<path d="M49.4925 18.6639C49.2609 18.5321 48.9991 18.4628 48.7327 18.4628C48.4663 18.4628 48.2045 18.5321 47.9729 18.6639L35.4285 25.9082C34.9516 26.1765 34.6835 26.6834 34.6835 27.2199V41.7396C34.6835 42.2761 34.9815 42.783 35.4285 43.0513L47.9729 50.2962C48.2045 50.428 48.4663 50.4973 48.7327 50.4973C48.9991 50.4973 49.2609 50.428 49.4925 50.2962L62.0371 43.0513C62.5138 42.783 62.7822 42.2761 62.7822 41.7396V27.2202C62.7822 26.6836 62.4839 26.1767 62.0371 25.9085L49.4925 18.6639Z" fill="url(#paint0_linear_28_67)"/>
<mask id="mask0_28_67" style="mask-type:luminance" maskUnits="userSpaceOnUse" x="34" y="18" width="29" height="33">
<path d="M49.4925 18.6639C49.2609 18.5321 48.9991 18.4628 48.7327 18.4628C48.4663 18.4628 48.2045 18.5321 47.9729 18.6639L35.4285 25.9082C34.9516 26.1765 34.6835 26.6834 34.6835 27.2199V41.7396C34.6835 42.2761 34.9815 42.783 35.4285 43.0513L47.9729 50.2962C48.2045 50.428 48.4663 50.4973 48.7327 50.4973C48.9991 50.4973 49.2609 50.428 49.4925 50.2962L62.0371 43.0513C62.5138 42.783 62.7822 42.2761 62.7822 41.7396V27.2202C62.7822 26.6836 62.4839 26.1767 62.0371 25.9085L49.4925 18.6639Z" fill="white"/>
</mask>
<g mask="url(#mask0_28_67)">
<path d="M62.0667 25.9085L49.4628 18.6639C49.3389 18.6013 49.2091 18.5513 49.0753 18.5148L34.9515 42.724C35.0686 42.8668 35.2099 42.9879 35.3689 43.0818L47.9729 50.3266C48.3305 50.5353 48.7476 50.5949 49.1348 50.4755L62.3946 26.2069C62.3052 26.0878 62.1858 25.9977 62.0667 25.9085Z" fill="url(#paint1_linear_28_67)"/>
</g>
<mask id="mask1_28_67" style="mask-type:luminance" maskUnits="userSpaceOnUse" x="34" y="18" width="29" height="33">
<path d="M49.4925 18.6639C49.2609 18.5321 48.9991 18.4628 48.7327 18.4628C48.4663 18.4628 48.2045 18.5321 47.9729 18.6639L35.4285 25.9082C34.9516 26.1765 34.6835 26.6834 34.6835 27.2199V41.7396C34.6835 42.2761 34.9815 42.783 35.4285 43.0513L47.9729 50.2962C48.2045 50.428 48.4663 50.4973 48.7327 50.4973C48.9991 50.4973 49.2609 50.428 49.4925 50.2962L62.0371 43.0513C62.5138 42.783 62.7822 42.2761 62.7822 41.7396V27.2202C62.7822 26.6836 62.4839 26.1767 62.0371 25.9085L49.4925 18.6639Z" fill="white"/>
</mask>
<g mask="url(#mask1_28_67)">
<path fill-rule="evenodd" clip-rule="evenodd" d="M62.0966 43.0516C62.4542 42.8429 62.7223 42.4851 62.8417 42.0977L49.0155 18.4849C48.6579 18.4253 48.2704 18.455 47.943 18.6637L35.4282 25.8789L48.926 50.5052C49.1223 50.4732 49.313 50.413 49.4922 50.3264L62.0966 43.0516Z" fill="url(#paint2_linear_28_67)"/>
<path fill-rule="evenodd" clip-rule="evenodd" d="M62.0966 43.0516L49.5223 50.2965C49.3448 50.3869 49.1535 50.4473 48.9562 50.4752L49.1947 50.9225L63.1395 42.8432V42.6642L62.7819 42.0677C62.7223 42.4851 62.4542 42.8429 62.0966 43.0516Z" fill="url(#paint3_linear_28_67)"/>
<path fill-rule="evenodd" clip-rule="evenodd" d="M62.0966 43.0516L49.5223 50.2965C49.3448 50.3869 49.1535 50.4473 48.9562 50.4752L49.1947 50.9225L63.1395 42.8432V42.6642L62.7819 42.0677C62.7223 42.4851 62.4542 42.8429 62.0966 43.0516Z" fill="url(#paint4_linear_28_67)"/>
</g>
<defs>
<linearGradient id="paint0_linear_28_67" x1="1950.68" y1="578.65" x2="574.574" y2="2739.68" gradientUnits="userSpaceOnUse">
<stop stop-color="#41873F"/>
<stop offset="0.3288" stop-color="#418B3D"/>
<stop offset="0.6352" stop-color="#419637"/>
<stop offset="0.9319" stop-color="#3FA92D"/>
<stop offset="1" stop-color="#3FAE2A"/>
</linearGradient>
<linearGradient id="paint1_linear_28_67" x1="1222.61" y1="1785.12" x2="4667.1" y2="-85.2099" gradientUnits="userSpaceOnUse">
<stop offset="0.1376" stop-color="#41873F"/>
<stop offset="0.4032" stop-color="#54A044"/>
<stop offset="0.7136" stop-color="#66B848"/>
<stop offset="0.9081" stop-color="#6CC04A"/>
</linearGradient>
<linearGradient id="paint2_linear_28_67" x1="-84.8895" y1="1620.73" x2="2817.87" y2="1620.73" gradientUnits="userSpaceOnUse">
<stop offset="0.09192" stop-color="#6CC04A"/>
<stop offset="0.2864" stop-color="#66B848"/>
<stop offset="0.5968" stop-color="#54A044"/>
<stop offset="0.8624" stop-color="#41873F"/>
</linearGradient>
<linearGradient id="paint3_linear_28_67" x1="-1424.14" y1="487.243" x2="1478.59" y2="487.243" gradientUnits="userSpaceOnUse">
<stop offset="0.09192" stop-color="#6CC04A"/>
<stop offset="0.2864" stop-color="#66B848"/>
<stop offset="0.5968" stop-color="#54A044"/>
<stop offset="0.8624" stop-color="#41873F"/>
</linearGradient>
<linearGradient id="paint4_linear_28_67" x1="1901.48" y1="-1826.9" x2="1165.28" y2="2028.51" gradientUnits="userSpaceOnUse">
<stop stop-color="#41873F"/>
<stop offset="0.3288" stop-color="#418B3D"/>
<stop offset="0.6352" stop-color="#419637"/>
<stop offset="0.9319" stop-color="#3FA92D"/>
<stop offset="1" stop-color="#3FAE2A"/>
</linearGradient>
</defs>
</svg>
