<svg width="47" height="46" viewBox="0 0 47 46" fill="none" xmlns="http://www.w3.org/2000/svg">
<path d="M39.6972 4.16277C38.5838 3.31825 37.3397 2.96416 36.0994 3.14011L36.0829 3.14285C35.5213 3.22799 34.9806 3.41775 34.4889 3.70229L34.4348 3.73354C32.1511 5.09829 30.9295 8.41406 31.3962 11.9842C31.735 14.5964 32.942 16.9194 34.6253 18.1983C35.7384 19.0441 36.9842 19.3972 38.2287 19.2188L38.2421 19.2167C38.8038 19.1316 39.3445 18.9418 39.8361 18.6573C42.1619 17.3145 43.408 13.9846 42.9413 10.3637C42.593 7.76036 41.3819 5.44202 39.6972 4.16277ZM37.6632 21.8976C35.8736 21.8663 34.1817 21.8362 32.5781 20.9533C28.147 18.5049 25.4717 17.0274 21.8884 19.0962C18.305 21.1651 18.2435 24.2226 18.1432 29.2872C18.1054 31.1201 17.2835 32.6027 16.4135 34.174C15.4155 35.9748 14.3844 37.8353 14.7809 40.0962C14.9045 40.9224 15.1853 41.7172 15.6083 42.4376C17.3637 45.478 21.1599 46.5846 24.0692 44.9049C25.5704 44.0382 26.8677 42.5957 28.2404 41.0691C29.5603 39.6012 30.9248 38.0838 32.3778 37.2449C33.8307 36.406 35.8229 35.9854 37.7481 35.5798C39.7513 35.1529 41.6415 34.755 43.1469 33.8859C46.052 32.2086 46.9876 28.3701 45.2322 25.3297C44.8166 24.6044 44.2659 23.9654 43.6098 23.4474C41.849 21.9718 39.7209 21.9342 37.6632 21.8976ZM11.2073 21.2993C12.9428 21.9809 14.6212 21.9388 15.9337 21.181C16.1129 21.0775 16.2842 20.9609 16.4461 20.8321C18.9513 18.849 18.7285 14.5235 15.9352 10.9784C14.762 9.4873 13.2616 8.33393 11.7167 7.72838C9.98443 7.04833 8.30481 7.09227 6.99309 7.84959C6.81393 7.95309 6.64266 8.06968 6.48069 8.19842C3.97549 10.1816 4.19837 14.507 6.99164 18.0522C8.16256 19.5412 9.66194 20.6929 11.2073 21.2993ZM26.1137 15.2506C26.3061 15.1747 26.4927 15.0847 26.6719 14.9812C27.9854 14.2229 28.8602 12.7909 29.1376 10.9472C29.3843 9.30615 29.1332 7.43377 28.4316 5.67156C26.759 1.48165 23.1245 -0.874109 20.1534 0.302199C19.961 0.3781 19.7744 0.468122 19.5952 0.571532C18.2844 1.33055 17.4065 2.76317 17.1294 4.60338C16.8813 6.24409 17.13 8.12012 17.8365 9.88291C19.5091 14.0728 23.1436 16.4286 26.1137 15.2506ZM13.8158 33.3193L13.8252 33.3082C14.6003 32.3206 14.917 31.0664 14.7407 29.6809C14.4728 27.5803 13.0669 25.3756 10.9757 23.7751C8.08119 21.5604 4.57468 20.9733 2.25147 22.3146C1.75908 22.5979 1.32437 22.9713 0.969978 23.4153L0.960579 23.4264C0.186097 24.4091 -0.128691 25.6667 0.0476648 27.0522C0.315507 29.1528 1.72146 31.3575 3.8126 32.958C6.70715 35.1727 10.2137 35.7598 12.5369 34.4185C13.0282 34.1354 13.462 33.7625 13.8158 33.3193Z" fill="black"/>
</svg>
