<svg width="100" height="100" viewBox="0 0 100 100" fill="none" xmlns="http://www.w3.org/2000/svg">
<path d="M0 50C0 64.5258 22.3859 76.3023 50 76.3023C77.6141 76.3023 100 64.5258 100 50C100 35.4742 77.6133 23.6976 50 23.6976C22.3867 23.6976 0 35.4742 0 50Z" fill="url(#paint0_radial_48_47)"/>
<path d="M50 74.3492C76.5352 74.3492 98.0469 63.4469 98.0469 50C98.0469 36.5515 76.5352 25.6508 50 25.6508C23.4648 25.6508 1.95312 36.5515 1.95312 50C1.95312 63.4469 23.4648 74.3492 50 74.3492Z" fill="#777BB3"/>
<path d="M27.1657 53.0188C29.3477 53.0188 30.9758 52.6164 32.0063 51.8234C33.0266 51.0375 33.7305 49.6773 34.1 47.7805C34.4438 46.007 34.3125 44.7695 33.7094 44.1008C33.0938 43.418 31.7618 43.0719 29.7508 43.0719H26.2633L24.3313 53.0188H27.1657ZM15.7602 65.2711C15.6802 65.271 15.6012 65.2532 15.5289 65.2189C15.4566 65.1847 15.3927 65.1348 15.3419 65.073C15.2912 65.0112 15.2547 64.9389 15.2352 64.8613C15.2156 64.7837 15.2135 64.7027 15.229 64.6242L20.3516 38.2664C20.3758 38.1432 20.442 38.0322 20.5389 37.9523C20.6357 37.8723 20.7573 37.8285 20.8829 37.8281H31.925C35.3954 37.8281 37.9782 38.7703 39.6024 40.6289C41.2336 42.4961 41.7383 45.1086 41.1 48.3906C40.8399 49.7273 40.393 50.9688 39.7719 52.0813C39.1256 53.2257 38.3006 54.2595 37.3282 55.1438C36.1321 56.2625 34.7782 57.075 33.3071 57.5523C31.8602 58.0242 30.0008 58.2633 27.7836 58.2633H23.3118L22.0352 64.832C22.0111 64.9557 21.9448 65.0671 21.8476 65.1472C21.7504 65.2273 21.6283 65.2711 21.5024 65.2711H15.7602Z" fill="black"/>
<path d="M26.711 43.6141H29.7509C32.1782 43.6141 33.0212 44.1469 33.3079 44.4648C33.7821 44.9914 33.8727 46.1031 33.5665 47.6773C33.2235 49.4406 32.5876 50.6914 31.6759 51.393C30.7431 52.1117 29.2243 52.4758 27.1657 52.4758H24.9891L26.711 43.6141ZM31.9251 37.2859H20.8837C20.6319 37.286 20.3879 37.3735 20.1935 37.5335C19.9992 37.6936 19.8664 37.9162 19.8181 38.1633L14.6954 64.5219C14.6651 64.6789 14.6699 64.8406 14.7094 64.9956C14.7489 65.1505 14.8222 65.2948 14.9239 65.4182C15.0256 65.5416 15.1533 65.6409 15.2979 65.7092C15.4425 65.7775 15.6003 65.8131 15.7602 65.8133H21.5024C21.7542 65.813 21.9981 65.7253 22.1923 65.5652C22.3865 65.405 22.5191 65.1823 22.5673 64.9352L23.7587 58.8055H27.7829C30.0579 58.8055 31.9735 58.557 33.4759 58.068C35.0204 57.5664 36.4415 56.7156 37.6993 55.5391C38.7123 54.6168 39.5718 53.5389 40.2454 52.3461C40.8946 51.1844 41.3618 49.8875 41.6321 48.4938C42.304 45.0383 41.7579 42.2719 40.0102 40.2719C38.279 38.2898 35.5587 37.2852 31.9251 37.2852V37.2859ZM23.6727 53.5602H27.1657C29.4808 53.5607 31.2048 53.1245 32.3376 52.2516C33.4704 51.3797 34.2355 49.9237 34.6329 47.8836C35.0121 45.9242 34.8389 44.5419 34.1134 43.7367C33.3868 42.9315 31.9326 42.5289 29.7509 42.5289H25.8165L23.6727 53.5602ZM31.9259 38.3688C35.2477 38.3688 37.6704 39.2406 39.1938 40.9844C40.7173 42.7281 41.1756 45.162 40.5688 48.2859C40.3178 49.5734 39.8946 50.75 39.2993 51.8156C38.703 52.8823 37.924 53.8581 36.9626 54.743C35.8168 55.8159 34.5428 56.5802 33.1407 57.0359C31.7391 57.4922 29.9535 57.7201 27.7837 57.7195H22.8649L21.5032 64.7273H15.761L20.8845 38.3688H31.9259Z" fill="white"/>
<path d="M54.2649 58.2633C54.1848 58.2634 54.1057 58.2457 54.0333 58.2116C53.9608 58.1775 53.8968 58.1278 53.8459 58.0661C53.7949 58.0043 53.7583 57.932 53.7386 57.8544C53.719 57.7768 53.7167 57.6958 53.732 57.6172L55.9977 45.9547C56.2141 44.8453 56.161 44.05 55.8492 43.7125C55.6578 43.507 55.0844 43.1625 53.3883 43.1625H49.282L46.4336 57.825C46.4092 57.9485 46.3426 58.0596 46.2452 58.1394C46.1479 58.2192 46.0259 58.2627 45.9 58.2625H40.2047C40.1247 58.2625 40.0457 58.2449 39.9733 58.2109C39.9009 58.1768 39.8369 58.1272 39.7859 58.0655C39.7349 58.0039 39.6982 57.9317 39.6783 57.8542C39.6585 57.7767 39.656 57.6958 39.6711 57.6172L44.7945 31.2586C44.8188 31.1351 44.8852 31.0239 44.9824 30.944C45.0796 30.864 45.2015 30.8203 45.3274 30.8203H51.0227C51.1027 30.8203 51.1817 30.8379 51.2541 30.8719C51.3265 30.906 51.3905 30.9556 51.4415 31.0173C51.4925 31.0789 51.5292 31.1511 51.549 31.2286C51.5689 31.3061 51.5713 31.3871 51.5563 31.4656L50.3203 37.8281H54.7367C58.1016 37.8281 60.3828 38.4203 61.7117 39.6414C63.0656 40.8859 63.4891 42.8758 62.968 45.5578L60.5844 57.825C60.56 57.9483 60.4935 58.0594 60.3963 58.1392C60.2992 58.219 60.1773 58.2625 60.0516 58.2625L54.2649 58.2633Z" fill="black"/>
<path d="M51.0235 30.2773H45.3274C45.0755 30.2774 44.8315 30.365 44.6371 30.5252C44.4427 30.6854 44.31 30.9082 44.2618 31.1555L39.1392 57.5133C39.1088 57.6703 39.1135 57.8322 39.1529 57.9872C39.1923 58.1423 39.2655 58.2867 39.3673 58.4101C39.469 58.5336 39.5968 58.633 39.7414 58.7014C39.8861 58.7697 40.044 58.8053 40.204 58.8055H45.9001C46.152 58.8054 46.396 58.7178 46.5904 58.5576C46.7848 58.3974 46.9175 58.1746 46.9657 57.9273L49.729 43.7047H53.3868C55.0806 43.7047 55.4368 44.0664 55.4501 44.0828C55.5532 44.1922 55.6884 44.7039 55.4649 45.8516L53.1993 57.5133C53.1689 57.6704 53.1736 57.8323 53.2131 57.9874C53.2526 58.1425 53.3259 58.287 53.4277 58.4104C53.5295 58.5339 53.6574 58.6333 53.8021 58.7016C53.9468 58.7699 54.1049 58.8054 54.2649 58.8055H60.0524C60.3042 58.8052 60.5481 58.7175 60.7423 58.5573C60.9365 58.3972 61.0691 58.1745 61.1173 57.9273L63.5009 45.6617C64.0595 42.782 63.5813 40.6227 62.079 39.2422C60.6446 37.925 58.2431 37.2852 54.7368 37.2852H50.979L52.0892 31.5703C52.1197 31.4131 52.1151 31.2511 52.0756 31.0959C52.0362 30.9407 51.963 30.7962 51.8611 30.6726C51.7593 30.5491 51.6314 30.4495 51.4866 30.3812C51.3418 30.3129 51.1836 30.2774 51.0235 30.2773ZM51.0235 31.3633L49.6618 38.3695H54.7368C57.93 38.3695 60.1324 38.9268 61.3438 40.0414C62.5563 41.1549 62.9204 42.9596 62.436 45.4555L60.0516 57.7203H54.2649L56.5313 46.0578C56.7892 44.7312 56.6941 43.8266 56.2462 43.3437C55.7983 42.8615 54.8457 42.6203 53.3884 42.6203H48.8345L45.9001 57.7195H40.2032L45.3267 31.3609H51.0235V31.3633Z" fill="white"/>
<path d="M71.9813 53.0188C74.1633 53.0188 75.7922 52.6164 76.8235 51.8234C77.8422 51.0375 78.5469 49.6773 78.9165 47.7805C79.2602 46.007 79.1297 44.7695 78.5258 44.1008C77.9102 43.418 76.5782 43.0719 74.5672 43.0719H71.0805L69.1469 53.0188H71.9813ZM60.5782 65.2711C60.498 65.2712 60.4188 65.2536 60.3463 65.2194C60.2738 65.1853 60.2098 65.1355 60.1588 65.0736C60.1079 65.0118 60.0713 64.9394 60.0517 64.8617C60.032 64.7839 60.0299 64.7029 60.0454 64.6242L65.168 38.2664C65.1923 38.1429 65.2587 38.0317 65.3559 37.9518C65.4531 37.8718 65.575 37.8281 65.7008 37.8281H76.7422C80.2125 37.8281 82.7954 38.7703 84.4188 40.6289C86.0508 42.4961 86.5547 45.1086 85.9164 48.3906C85.6722 49.6834 85.2242 50.9291 84.5891 52.0813C83.9428 53.2257 83.1178 54.2595 82.1454 55.1438C80.95 56.2625 79.5946 57.075 78.1243 57.5523C76.6774 58.0242 74.818 58.2633 72.6 58.2633H68.129L66.8532 64.832C66.829 64.9558 66.7626 65.0673 66.6652 65.1474C66.5679 65.2275 66.4457 65.2712 66.3196 65.2711H60.5782Z" fill="black"/>
<path d="M71.5274 43.6141H74.5673C76.9946 43.6141 77.8376 44.1469 78.1235 44.4648C78.6001 44.9914 78.6891 46.1031 78.3837 47.6773C78.0399 49.4406 77.404 50.6914 76.4923 51.393C75.5587 52.1117 74.0399 52.4758 71.9821 52.4758H69.8056L71.5274 43.6141ZM76.7415 37.2859H65.7001C65.4484 37.2861 65.2046 37.3737 65.0104 37.5338C64.8162 37.6938 64.6836 37.9163 64.6352 38.1633L59.5118 64.5219C59.4815 64.6789 59.4863 64.8408 59.5259 64.9958C59.5654 65.1508 59.6387 65.2951 59.7405 65.4185C59.8423 65.5419 59.9702 65.6412 60.1148 65.7095C60.2595 65.7777 60.4175 65.8132 60.5774 65.8133H66.3196C66.5714 65.813 66.8152 65.7253 67.0095 65.5652C67.2037 65.405 67.3363 65.1823 67.3845 64.9352L68.5759 58.8055H72.5993C74.8735 58.8055 76.7899 58.557 78.2915 58.068C79.8368 57.5664 81.2579 56.7156 82.5165 55.5383C83.5291 54.6162 84.3883 53.5386 85.0618 52.3461C85.7118 51.1844 86.1774 49.8875 86.4485 48.4938C87.1204 45.0383 86.5751 42.2719 84.8266 40.2719C83.0954 38.2898 80.3759 37.2852 76.7407 37.2852L76.7415 37.2859ZM68.4891 53.5602H71.9813C74.2964 53.5607 76.0209 53.1245 77.1548 52.2516C78.2876 51.3797 79.0522 49.9237 79.4485 47.8836C79.8293 45.9242 79.6561 44.5419 78.929 43.7367C78.2019 42.9315 76.748 42.5289 74.5673 42.5289H70.6337L68.4891 53.5602ZM76.7415 38.3688C80.0634 38.3688 82.486 39.2406 84.0095 40.9844C85.5329 42.7281 85.991 45.162 85.3837 48.2859C85.1337 49.5734 84.7108 50.75 84.1149 51.8156C83.5191 52.8823 82.7399 53.8581 81.7774 54.743C80.6316 55.8159 79.3576 56.5802 77.9556 57.0359C76.5545 57.4922 74.7691 57.7201 72.5993 57.7195H67.6813L66.3181 64.7273H60.5759L65.6993 38.3688H76.7415Z" fill="white"/>
<defs>
<radialGradient id="paint0_radial_48_47" cx="0" cy="0" r="1" gradientUnits="userSpaceOnUse" gradientTransform="translate(30.0203 32.9445) scale(65.6573 65.6573)">
<stop stop-color="#AEB2D5"/>
<stop offset="0.3" stop-color="#AEB2D5"/>
<stop offset="0.75" stop-color="#484C89"/>
<stop offset="1" stop-color="#484C89"/>
</radialGradient>
</defs>
</svg>
