<svg width="50" height="42" viewBox="0 0 50 42" fill="none" xmlns="http://www.w3.org/2000/svg">
<path d="M45.2153 30.6275V16.4269L25.9569 26.957C25.2392 27.3582 24.4817 27.5587 23.6842 27.5587C22.8868 27.5587 22.1292 27.3582 21.4115 26.957L1.19619 15.8854C0.757596 15.6447 0.448186 15.3438 0.267963 14.9828C0.0877402 14.6218 -0.00157391 14.2206 2.09855e-05 13.7794C0.00161588 13.3381 0.0917278 12.937 0.270356 12.5759C0.448984 12.2149 0.757596 11.9141 1.19619 11.6734L21.4115 0.601756C21.7703 0.401183 22.1396 0.250352 22.5191 0.149263C22.8987 0.0481746 23.2871 -0.00156697 23.6842 3.76077e-05C24.0813 0.00164219 24.4705 0.0521864 24.8517 0.15167C25.2329 0.251155 25.6013 0.401183 25.9569 0.601756L48.744 13.1175C49.1427 13.3181 49.4521 13.6093 49.6722 13.9912C49.8923 14.3731 50.0016 14.7839 50 15.2235V30.6275C50 31.3094 49.7703 31.8815 49.311 32.3436C48.8517 32.8057 48.2839 33.036 47.6076 33.0344C46.9314 33.0328 46.3636 32.8017 45.9043 32.3412C45.445 31.8807 45.2153 31.3094 45.2153 30.6275ZM21.4115 41.3982L9.44977 34.8997C8.65233 34.4584 8.03431 33.8567 7.59571 33.0945C7.15711 32.3324 6.93781 31.51 6.93781 30.6275V21.4814L21.4115 29.3639C22.1292 29.765 22.8868 29.9656 23.6842 29.9656C24.4817 29.9656 25.2392 29.765 25.9569 29.3639L40.4306 21.4814V30.6275C40.4306 31.51 40.2113 32.3324 39.7727 33.0945C39.3341 33.8567 38.7161 34.4584 37.9187 34.8997L25.9569 41.3982C25.5981 41.5988 25.2297 41.7496 24.8517 41.8507C24.4737 41.9518 24.0845 42.0016 23.6842 42C23.2839 41.9984 22.8947 41.9486 22.5168 41.8507C22.1388 41.7529 21.7703 41.602 21.4115 41.3982Z" fill="black"/>
</svg>
