<svg width="100" height="100" viewBox="0 0 100 100" fill="none" xmlns="http://www.w3.org/2000/svg">
<g clip-path="url(#clip0_48_62)">
<mask id="mask0_48_62" style="mask-type:luminance" maskUnits="userSpaceOnUse" x="0" y="0" width="100" height="100">
<path d="M76.5625 0H23.4375C10.4933 0 0 10.4933 0 23.4375V76.5625C0 89.5067 10.4933 100 23.4375 100H76.5625C89.5067 100 100 89.5067 100 76.5625V23.4375C100 10.4933 89.5067 0 76.5625 0Z" fill="white"/>
</mask>
<g mask="url(#mask0_48_62)">
<path d="M23.4375 0C10.4934 0 0 10.4934 0 23.4375V76.5625C0 89.5066 10.4934 100 23.4375 100H65.8047C65.1098 97.952 64.5656 94.7086 64.2594 91.0066C63.9957 87.8223 63.9082 84.2992 64.0543 80.9012C64.0148 80.3988 63.991 80.0723 63.991 80.0723C63.991 80.0723 63.259 75.1465 62.2055 71.1C61.7391 69.3039 61.2082 67.6797 60.6508 66.7383C60.3637 66.2527 60.682 64.2574 61.4832 61.3023C61.952 62.1113 63.9297 65.5727 64.327 66.6883C64.7742 67.9492 64.868 68.3105 64.868 68.3105C64.868 68.3105 63.7832 62.7355 62.0035 59.4824C62.437 58.0328 62.8983 56.5917 63.3871 55.1598C64.0035 56.2406 65.4047 58.7227 65.9109 59.8988C65.9578 60.0078 66 60.1102 66.0309 60.1945C66.1027 60.3984 66.1633 60.5715 66.2176 60.7301C66.5031 61.5574 66.5727 61.8207 66.5727 61.8207C66.5727 61.8207 66.4668 61.2793 66.2699 60.4441C66.1867 60.0914 66.0832 59.6766 65.968 59.2348C65.5195 57.5125 64.8383 55.2578 63.966 53.491C66.2051 41.8527 73.4117 26.6133 81.1758 18.3863C81.8449 17.6777 82.5172 17.0148 83.1906 16.4172C87.7293 12.3937 92.3281 11.0344 96.1262 14.418C98.8738 16.866 99.998 20.248 100 24.1406V23.4375C100 10.4934 89.5066 0 76.5625 0H23.4375Z" fill="#D9D9D9"/>
<path d="M23.4375 0C10.4934 0 0 10.4934 0 23.4375V76.5625C0 89.5066 10.4934 100 23.4375 100H65.8047C65.1098 97.952 64.5656 94.7086 64.2594 91.0066C63.9957 87.8223 63.9082 84.2992 64.0543 80.9012C64.0148 80.3988 63.991 80.0723 63.991 80.0723C63.991 80.0723 63.259 75.1465 62.2055 71.1C61.7391 69.3039 61.2082 67.6797 60.6508 66.7383C60.3637 66.2527 60.682 64.2574 61.4832 61.3023C61.952 62.1113 63.9297 65.5727 64.327 66.6883C64.7742 67.9492 64.868 68.3105 64.868 68.3105C64.868 68.3105 63.7832 62.7355 62.0035 59.4824C62.437 58.0328 62.8983 56.5917 63.3871 55.1598C64.0035 56.2406 65.4047 58.7227 65.9109 59.8988C65.9578 60.0078 66 60.1102 66.0309 60.1945C66.1027 60.3984 66.1633 60.5715 66.2176 60.7301C66.5031 61.5574 66.5727 61.8207 66.5727 61.8207C66.5727 61.8207 66.4668 61.2793 66.2699 60.4441C66.1867 60.0914 66.0832 59.6766 65.968 59.2348C65.5195 57.5125 64.8383 55.2578 63.966 53.491C66.2051 41.8527 73.4117 26.6133 81.1758 18.3863C81.8449 17.6777 82.5172 17.0148 83.1906 16.4172C87.7293 12.3937 92.3281 11.0344 96.1262 14.418C98.8738 16.866 99.998 20.248 100 24.1406V23.4375C100 10.4934 89.5066 0 76.5625 0H23.4375Z" fill="url(#paint0_linear_48_62)"/>
<path d="M96.1262 14.418C92.3281 11.0344 87.7293 12.3934 83.1906 16.4172C82.5172 17.0149 81.8449 17.6778 81.1758 18.386C73.4117 26.6137 66.2051 41.8528 63.966 53.4911C64.8383 55.2579 65.5195 57.5126 65.968 59.2348C66.0832 59.6766 66.1867 60.0915 66.2699 60.4442C66.4668 61.2793 66.5727 61.8208 66.5727 61.8208C66.5727 61.8208 66.5031 61.5575 66.2176 60.7301C66.1633 60.5715 66.1027 60.3985 66.0309 60.1946C65.9934 60.095 65.9534 59.9964 65.9109 59.8989C65.4047 58.7227 64.0035 56.2407 63.3871 55.1598C62.8983 56.5917 62.437 58.0329 62.0035 59.4825C63.7832 62.7356 64.868 68.3106 64.868 68.3106C64.868 68.3106 64.7742 67.9493 64.327 66.6883C63.9297 65.5727 61.952 62.1114 61.4832 61.3024C60.682 64.2575 60.3637 66.2528 60.6508 66.7383C61.2082 67.6797 61.7391 69.304 62.2055 71.1001C63.259 75.1465 63.991 80.0723 63.991 80.0723C63.991 80.0723 64.0148 80.3989 64.0543 80.9012C63.9082 84.2993 63.9957 87.8223 64.2594 91.0067C64.6082 95.2219 65.2652 98.8434 66.1027 100.781L66.6711 100.472C65.4414 96.6536 64.9418 91.6497 65.1605 85.8786C65.4914 77.0579 67.5238 66.4204 71.2785 55.3333C77.6223 38.5961 86.4238 25.1676 94.4793 18.7543C87.1371 25.3778 77.2 46.8165 74.2254 54.7555C70.8949 63.6457 68.5344 71.9887 67.1121 79.9817C69.5664 72.4883 77.502 69.2672 77.502 69.2672C77.502 69.2672 81.3941 64.4727 85.9426 57.6227C83.218 58.2434 78.7441 59.3059 77.2453 59.9348C75.0352 60.861 74.4395 61.177 74.4395 61.177C74.4395 61.177 81.5996 56.8215 87.7426 54.8497C96.191 41.5586 105.395 22.677 96.1262 14.418ZM11.1406 19.1407C9.94414 19.1407 8.97109 19.4903 8.22539 20.1887C7.4793 20.8879 7.10117 21.8047 7.10117 22.9278C7.10117 23.5098 7.19492 24.0403 7.38008 24.5266C7.56523 25.0137 7.85352 25.4653 8.24063 25.8731C8.62813 26.2813 9.40352 26.836 10.5594 27.5411C11.9773 28.395 12.9051 29.0879 13.3504 29.6293C13.7961 30.1704 14.0172 30.7372 14.0172 31.3278C14.0172 32.1192 13.7535 32.7504 13.2109 33.2254C12.6676 33.7 11.941 33.9364 11.0398 33.9364C10.0895 33.9364 9.26172 33.6063 8.55078 32.9497C7.83984 32.2926 7.48125 31.4231 7.47305 30.3332H7.03125V34.2891H7.47305C7.6082 33.9145 7.79492 33.7227 8.03945 33.7227C8.15664 33.7227 8.43203 33.8028 8.86133 33.9524C9.90469 34.3188 10.7617 34.4954 11.4355 34.4954C12.5961 34.4954 13.5871 34.0946 14.4129 33.279C15.2371 32.4641 15.6535 31.4813 15.6535 30.3336C15.6535 29.4438 15.3785 28.652 14.8395 27.9622C14.3 27.2711 13.2512 26.4676 11.6832 25.5442C10.3348 24.745 9.45898 24.0938 9.05508 23.586C8.65039 23.079 8.44258 22.5184 8.44258 21.9028C8.44258 21.2372 8.69023 20.7028 9.17891 20.304C9.66797 19.9047 10.3082 19.7071 11.1098 19.7071C12.0117 19.7071 12.7633 19.9711 13.3582 20.5028C13.9523 21.0352 14.2961 21.7731 14.3973 22.7215H14.8395V19.2942H14.4281C14.3781 19.4687 14.3316 19.5808 14.2887 19.6305C14.2473 19.6805 14.1672 19.7071 14.0484 19.7071C13.9055 19.7071 13.6504 19.6477 13.2887 19.5313C12.5133 19.2735 11.7984 19.1407 11.1406 19.1407ZM25.5859 19.1411C24.1277 19.1411 22.8043 19.4801 21.6082 20.1586C20.4105 20.836 19.4625 21.7758 18.7625 22.9739C18.0633 24.1715 17.7156 25.4438 17.7156 26.7993C17.7156 28.6204 18.3199 30.243 19.5379 31.6649C20.7566 33.086 22.2168 33.9715 23.9109 34.3122C24.2984 34.5114 24.8523 35.0254 25.5781 35.8575C26.3957 36.7965 27.0875 37.4739 27.6563 37.877C28.2131 38.2735 28.8312 38.5759 29.4859 38.7723C30.1348 38.9672 30.8363 39.0629 31.5953 39.0629C32.5137 39.0629 33.3363 38.9055 34.0605 38.5809L33.898 38.1833C33.4669 38.3335 33.0132 38.4086 32.5566 38.4051C31.9152 38.4051 31.2676 38.1965 30.618 37.7778C29.9695 37.3579 29.1586 36.5571 28.191 35.3754C27.7363 34.809 27.4227 34.452 27.2453 34.3122C29.0988 33.9547 30.6234 33.0684 31.8121 31.6497C33.0008 30.2317 33.5953 28.6129 33.5953 26.7993C33.5953 24.6454 32.8188 22.8356 31.277 21.3598C29.7344 19.8829 27.8367 19.1411 25.5859 19.1411ZM34.6035 19.1407L34.627 19.6075C35.5973 19.6075 36.141 19.8895 36.2629 20.4567C36.3078 20.6598 36.3289 21.034 36.3324 21.5739L36.3246 31.8942C36.3168 32.665 36.2057 33.1572 35.9914 33.3707C35.777 33.5829 35.4148 33.7153 34.8902 33.7684L34.8668 34.2352H44.5437L44.7918 31.8942H44.35C44.2238 32.5317 43.9344 32.9887 43.4738 33.2481C43.0117 33.5098 42.1953 33.6387 41.0156 33.6387H40.1008C39.0395 33.6387 38.4254 33.2598 38.2633 32.4981C38.2305 32.337 38.2148 32.173 38.2164 32.0086L38.2555 21.5735C38.2555 20.804 38.3539 20.2883 38.5578 20.0356C38.7641 19.7844 39.1359 19.6434 39.6742 19.6075L39.6512 19.1407H34.6035ZM25.741 19.7071C27.3855 19.7071 28.7281 20.3457 29.7652 21.6348C30.8023 22.9239 31.316 24.6911 31.316 26.929C31.3163 29.0487 30.7941 30.7472 29.7496 32.0243C28.7047 33.3008 27.3141 33.9368 25.5855 33.9368C23.9254 33.9368 22.5793 33.2809 21.5465 31.9629C20.5141 30.645 20.0035 28.9336 20.0035 26.8293C20.0035 24.6672 20.5203 22.936 21.5617 21.6422C22.6027 20.35 23.9965 19.7071 25.741 19.7071ZM47.9941 21.925C47.7582 21.925 47.5781 22.0036 47.4438 22.1622C47.3059 22.32 47.2637 22.5114 47.3117 22.7438C47.3582 22.9688 47.4871 23.1665 47.6918 23.3329C47.8953 23.4989 48.1148 23.5852 48.3508 23.5852C48.5789 23.5852 48.7531 23.4989 48.8781 23.3329C49.0026 23.1662 49.0414 22.9698 48.9945 22.7438C48.9461 22.5114 48.8219 22.32 48.6301 22.1622C48.4359 22.0036 48.2223 21.925 47.9941 21.925ZM54.3754 23.5086C53.9742 25.0309 53.1051 25.8547 51.7703 25.9875L51.7855 26.4235H53.3441L53.3133 31.5797C53.3156 32.4618 53.343 33.0485 53.4063 33.3473C53.5598 34.0622 54.0332 34.4258 54.825 34.4258C55.9714 34.4258 57.1732 33.7373 58.4305 32.3602L58.0508 32.0391C57.143 32.9454 56.3402 33.4008 55.6395 33.4008C55.2086 33.4008 54.9414 33.1563 54.8406 32.6743C54.8122 32.5384 54.7992 32.3998 54.802 32.261L54.8176 26.4235H57.1977L57.1746 25.7274H54.825V23.5086H54.3754ZM63.5789 25.452C62.2477 25.452 61.1645 26.0895 60.3227 27.3571C59.4848 28.6266 59.2254 30.0329 59.5551 31.5797C59.7488 32.486 60.1348 33.1891 60.7258 33.684C61.3156 34.179 62.0641 34.4262 62.9586 34.4262C63.7918 34.4262 64.952 34.2176 65.4398 33.7985C65.9293 33.3797 66.3805 32.7008 66.7969 31.7711L66.4633 31.427C65.7992 32.6329 64.4582 33.2403 63.4473 33.2403C62.057 33.2403 61.2059 32.4875 60.8887 30.9911C60.846 30.789 60.8148 30.5846 60.7953 30.379C62.4492 30.1204 63.7023 29.6629 64.5484 29.0016C65.3934 28.3403 66.2422 27.6387 66.0836 26.8977C65.9891 26.4575 65.7574 26.1114 65.4012 25.8497C65.0402 25.5879 64.1027 25.452 63.5789 25.452ZM49.0254 25.5055L46.1566 26.1559V26.6606L47.1488 26.5383C47.6297 26.5383 47.9125 26.7532 48.002 27.1809C48.032 27.3243 48.0508 27.525 48.0563 27.7778L48.025 32.4063C48.0172 33.0469 47.9449 33.4192 47.8004 33.5309C47.6543 33.6429 47.2691 33.6989 46.6449 33.6989L46.6293 34.1352H51.1809L51.173 33.6993C50.5406 33.6993 50.1309 33.65 49.948 33.554C49.7684 33.4583 49.6449 33.2844 49.5914 33.0184C49.55 32.8262 49.532 32.4957 49.5293 32.0391L49.5449 25.5055H49.0254ZM62.8504 26.3625C63.1273 26.3625 63.3949 26.468 63.6645 26.6758C63.9301 26.8832 64.0922 27.1141 64.1449 27.3645C64.4047 28.595 63.2988 29.4457 60.8109 29.92C60.7398 29.0227 60.8977 28.2079 61.2996 27.4715C61.6984 26.736 62.218 26.3625 62.8504 26.3625Z" fill="#003B57"/>
</g>
</g>
<defs>
<linearGradient id="paint0_linear_48_62" x1="57.6617" y1="2.04648" x2="57.6617" y2="94.4387" gradientUnits="userSpaceOnUse">
<stop stop-color="#97D9F6"/>
<stop offset="0.92" stop-color="#0F80CC"/>
<stop offset="1" stop-color="#0F80CC"/>
</linearGradient>
<clipPath id="clip0_48_62">
<rect width="100" height="100" fill="white"/>
</clipPath>
</defs>
</svg>
