<svg width="302" height="47" viewBox="0 0 302 47" fill="none" xmlns="http://www.w3.org/2000/svg">
<path d="M93.5657 21.7035H88.1226V32.2638C88.1226 35.0797 89.9663 35.036 93.5657 34.8598V39.1275C86.2789 40.0074 83.3815 37.9838 83.3815 32.2638V21.7041H79.3431V17.1283H83.3815V11.2183L88.1226 9.81093V17.1283H93.5657V21.7035ZM114.315 17.1283H119.056V39.1275H114.315V35.9597C112.647 38.2919 110.057 39.6999 106.634 39.6999C100.663 39.6999 95.7026 34.6398 95.7026 28.1279C95.7026 21.5722 100.663 16.5564 106.633 16.5564C110.057 16.5564 112.647 17.9638 114.315 20.2523V17.1283ZM107.379 35.1679C111.33 35.1679 114.315 32.22 114.315 28.1279C114.315 24.0358 111.33 21.0879 107.379 21.0879C103.429 21.0879 100.444 24.0358 100.444 28.1279C100.444 32.22 103.429 35.1679 107.379 35.1679ZM126.958 13.8279C125.289 13.8279 123.929 12.4205 123.929 10.7926C123.93 9.98786 124.25 9.21656 124.818 8.64754C125.385 8.07852 126.155 7.75816 126.958 7.7566C127.761 7.75816 128.53 8.07852 129.098 8.64754C129.666 9.21656 129.985 9.98786 129.987 10.7926C129.987 12.4205 128.626 13.8279 126.958 13.8279ZM124.587 39.1275V17.1283H129.328V39.1275H124.587ZM134.815 39.1275V7.00854H139.556V39.1275H134.815ZM170.328 17.1283H175.332L168.44 39.1275H163.787L159.222 24.3001L154.613 39.1275H149.96L143.068 17.1283H148.072L152.33 32.3081L156.939 17.1283H161.461L166.026 32.3081L170.328 17.1283ZM181.215 13.8285C179.547 13.8285 178.186 12.4205 178.186 10.7926C178.187 9.98786 178.507 9.21656 179.074 8.64754C179.642 8.07852 180.412 7.75816 181.215 7.7566C182.017 7.75816 182.787 8.07852 183.355 8.64754C183.922 9.21656 184.242 9.98786 184.243 10.7926C184.243 12.4205 182.882 13.8279 181.215 13.8279M178.844 39.1269V17.1283H183.585V39.1275L178.844 39.1269ZM200.617 16.5552C205.533 16.5552 209.046 19.8993 209.046 25.6194V39.1269H204.304V26.1037C204.304 22.7602 202.373 21.0004 199.388 21.0004C196.271 21.0004 193.813 22.8478 193.813 27.3361V39.1275H189.072V17.1283H193.813V19.9442C195.262 17.6557 197.632 16.5552 200.617 16.5552ZM231.521 8.32843H236.262V39.1275H231.521V35.9597C229.853 38.2919 227.263 39.6999 223.839 39.6999C217.869 39.6999 212.908 34.6398 212.908 28.1279C212.908 21.5722 217.869 16.5564 223.839 16.5564C227.263 16.5564 229.853 17.9638 231.521 20.2523V8.32843ZM224.585 35.1679C228.535 35.1679 231.521 32.22 231.521 28.1279C231.521 24.0358 228.535 21.0879 224.585 21.0879C220.634 21.0879 217.649 24.0358 217.649 28.1279C217.649 32.22 220.634 35.1679 224.585 35.1679ZM252.152 39.6999C245.524 39.6999 240.563 34.6398 240.563 28.1279C240.563 21.5722 245.524 16.5564 252.152 16.5564C256.454 16.5564 260.185 18.8 261.942 22.2322L257.859 24.6082C256.893 22.5403 254.742 21.2198 252.109 21.2198C248.245 21.2198 245.304 24.1682 245.304 28.1279C245.304 32.0875 248.245 35.036 252.109 35.036C254.742 35.036 256.893 33.6718 257.947 31.6476L262.03 33.9798C260.185 37.4558 256.454 39.6999 252.152 39.6999ZM269.843 23.2002C269.843 27.2036 281.651 24.7838 281.651 32.9237C281.651 37.3233 277.832 39.6999 273.091 39.6999C268.702 39.6999 265.541 37.7195 264.136 34.5517L268.219 32.1756C268.921 34.1561 270.677 35.3435 273.091 35.3435C275.199 35.3435 276.823 34.6398 276.823 32.8799C276.823 28.964 265.014 31.1639 265.014 23.2883C265.014 19.1518 268.57 16.5564 273.047 16.5564C276.647 16.5564 279.632 18.2282 281.169 21.1323L277.174 23.3758C276.384 21.6603 274.847 20.8685 273.047 20.8685C271.335 20.8685 269.843 21.616 269.843 23.2002ZM290.079 23.2002C290.079 27.2036 301.888 24.7838 301.888 32.9237C301.888 37.3233 298.069 39.6999 293.328 39.6999C288.938 39.6999 285.777 37.7195 284.373 34.5517L288.455 32.1756C289.157 34.1561 290.914 35.3435 293.328 35.3435C295.435 35.3435 297.059 34.6398 297.059 32.8799C297.059 28.964 285.251 31.1639 285.251 23.2883C285.251 19.1518 288.806 16.5564 293.284 16.5564C296.883 16.5564 299.868 18.2282 301.405 21.1323L297.411 23.3758C296.62 21.6603 295.084 20.8685 293.284 20.8685C291.572 20.8685 290.079 21.616 290.079 23.2002Z" fill="#2D3748"/>
<path d="M36.094 0C26.4688 0 20.4552 5.13786 18.047 15.4178C21.6553 10.2793 25.8676 8.35249 30.6788 9.63725C33.4259 10.3685 35.3891 12.4959 37.5632 14.8534C41.1015 18.6884 45.197 23.1282 54.141 23.1282C63.7657 23.1282 69.7799 17.9897 72.188 7.70739C68.5786 12.8485 64.3679 14.7763 59.5557 13.4909C56.8092 12.7591 54.8482 10.6323 52.6713 8.27479C49.1352 4.43976 45.0408 0 36.094 0ZM18.047 23.1282C8.42231 23.1282 2.40815 28.2667 0 38.549C3.60903 33.4079 7.81962 31.4801 12.6318 32.7655C15.3789 33.4973 17.342 35.6241 19.5161 37.9816C23.0545 41.8166 27.15 46.2564 36.094 46.2564C45.7187 46.2564 51.7329 41.1185 54.141 30.8386C50.5316 35.9773 46.3208 37.9041 41.5087 36.6192C38.7622 35.8879 36.8012 33.7605 34.6243 31.403C31.0882 27.568 26.9938 23.1282 18.047 23.1282Z" fill="#38BDF8"/>
</svg>
