<svg width="100" height="100" viewBox="0 0 100 100" fill="none" xmlns="http://www.w3.org/2000/svg">
<g clip-path="url(#clip0_48_71)">
<path d="M9.76562 0H90.2344C95.6445 0 100 4.35547 100 9.76562V90.2344C100 95.6445 95.6445 100 90.2344 100H9.76562C4.35547 100 0 95.6445 0 90.2344V9.76562C0 4.35547 4.35547 0 9.76562 0Z" fill="url(#paint0_linear_48_71)"/>
<path d="M61.1875 13H82.3125C84.9094 13 87 15.0906 87 17.6875V52.0625C87 54.6594 84.9094 56.75 82.3125 56.75H61.1875C58.5906 56.75 56.5 54.6594 56.5 52.0625V17.6875C56.5 15.0906 58.5906 13 61.1875 13ZM17.6875 13H38.8125C41.4094 13 43.5 15.0906 43.5 17.6875V77.0625C43.5 79.6594 41.4094 81.75 38.8125 81.75H17.6875C15.0906 81.75 13 79.6594 13 77.0625V17.6875C13 15.0906 15.0906 13 17.6875 13Z" fill="white"/>
</g>
<defs>
<linearGradient id="paint0_linear_48_71" x1="50" y1="0" x2="50" y2="100" gradientUnits="userSpaceOnUse">
<stop stop-color="#2684FF"/>
<stop offset="1" stop-color="#0052CC"/>
</linearGradient>
<clipPath id="clip0_48_71">
<rect width="100" height="100" fill="white"/>
</clipPath>
</defs>
</svg>
