<svg width="128" height="129" viewBox="0 0 128 129" fill="none" xmlns="http://www.w3.org/2000/svg">
<g clip-path="url(#clip0_48_56)">
<path fill-rule="evenodd" clip-rule="evenodd" d="M63.9645 0.001C80.5782 0.001 97.1917 0.000666667 113.805 0C115.89 0 117.955 0.181 119.956 0.791C124.293 2.113 126.59 5.2235 127.49 9.51C127.847 11.21 127.949 12.9425 127.952 14.675C127.979 26.31 127.998 37.946 127.999 49.582C128 70.774 128.003 91.966 127.959 113.158C127.953 116.124 127.795 119.123 126.331 121.826C124.706 124.823 122.482 127.195 119.106 128.238C118.496 128.426 117.859 128.641 117.233 128.641C115.792 128.642 114.39 128.999 112.953 128.999C80.4195 128.996 47.8865 129.015 15.353 128.964C12.707 128.959 10.018 128.766 7.50451 127.689C7.00451 127.474 6.49951 127.295 6.05951 126.96C2.85951 124.521 0.686512 121.479 0.220512 117.364C0.0530117 115.88 -0.000488281 114.404 -0.000488281 112.92C0.00451172 79.9435 0.00751172 46.9675 0.0245117 13.9915C0.0260117 12.0785 0.0455117 10.1325 0.634012 8.3015C2.20151 3.423 5.63051 0.7595 10.7135 0.2185C11.895 0.0925 13.0865 0.011 14.2735 0.01C30.836 -0.0035 47.401 0.001 63.9645 0.001Z" fill="#FB7A24"/>
<path fill-rule="evenodd" clip-rule="evenodd" d="M64.3875 82.0565C64.024 84.2835 63.7685 86.2965 62.9685 88.1515C59.2235 96.8435 52.8405 102.14 43.2715 103.194C31.961 104.44 21.514 97.4595 18.373 86.6175C17.2345 82.6885 17.3485 78.683 17.7615 74.684C18.202 70.411 19.461 66.359 21.4265 62.536C21.708 61.9895 21.7025 61.577 21.3505 61.0475C18.3325 56.5085 17.1615 51.494 17.5865 46.0815C17.814 43.1885 18.5165 40.4215 19.828 37.8295C23.6725 30.237 32.113 23.7935 43.4175 24.8635C53.3575 25.8035 62.564 34.378 64.001 44.021C64.0735 44.505 64.2095 44.98 64.3685 45.694C64.6065 44.401 64.7785 43.334 65.001 42.277C66.8525 33.5165 75.428 24.3495 87.583 24.236C99.903 24.122 109.027 33.7845 110.748 42.7585C111.476 46.551 111.349 50.34 110.749 54.1275C110.155 57.8956 109.032 61.561 107.413 65.015C107.055 65.7795 107.092 66.33 107.551 67.04C110.204 71.152 111.375 75.666 111.225 80.568C110.911 90.7965 103.677 99.969 93.724 102.368C79.829 105.716 69.1775 97.4065 65.593 87.3525C65.008 85.716 64.7315 84.0075 64.388 82.0565M89.6325 64.0865C89.781 63.508 90.229 63.1615 90.551 62.7335C94.035 58.1035 95.8675 52.932 95.4585 47.1085C95.1605 42.8585 91.665 39.8645 87.4335 40.023C83.199 40.1815 80.0085 43.447 79.9485 47.684C79.944 48.031 79.965 48.3785 79.9435 48.723C79.652 53.2385 77.1605 55.712 73.385 55.988C72.6955 56.0385 72.004 56.1 71.3135 56.102C66.4135 56.113 61.514 56.111 56.6135 56.1065C54.4735 56.1045 52.3515 56.3375 50.3135 56.9665C40.8 59.9015 35.2525 66.4075 33.4155 76.104C33.0515 78.0225 32.724 80.0135 33.353 81.984C34.2555 84.8105 35.938 86.9125 38.916 87.6155C42.0025 88.344 44.691 87.538 46.827 85.1135C48.2075 83.546 48.643 81.6835 48.746 79.6395C49.013 74.382 51.876 71.754 56.651 71.7935C63.9755 71.8545 71.301 71.8065 78.6265 71.812C79.9265 71.8125 79.9385 71.83 79.945 73.116C79.9575 75.491 79.8845 77.8695 79.976 80.242C80.125 84.1155 83.533 87.335 87.484 87.4485C91.558 87.565 95.1895 84.5515 95.455 80.618C95.684 77.213 95.6695 73.7875 95.446 70.38C95.273 67.7425 93.846 65.8625 91.428 64.7715C90.848 64.5105 90.238 64.315 89.6325 64.0865ZM43.7165 56.0945C45.292 56.0945 46.578 56.08 47.863 56.101C48.5 56.111 48.736 55.837 48.731 55.2125C48.71 52.741 48.8375 50.2615 48.68 47.799C48.472 44.5505 46.7445 42.202 43.72 41.0175C40.619 39.803 37.781 40.496 35.381 42.7865C32.9705 45.088 32.649 47.9025 33.4925 50.9825C34.2675 53.8135 36.0975 55.4215 38.9765 55.9075C40.6485 56.189 42.33 56.054 43.7165 56.0945Z" fill="white"/>
</g>
<defs>
<clipPath id="clip0_48_56">
<rect width="128" height="129" fill="white"/>
</clipPath>
</defs>
</svg>
